{"asset":{"version":"2.0","generator":"Unity 6000.3.4f1 glTFast 6.15.1"},"nodes":[{"name":"Sky and Fog Volume"},{"name":"StaticLightingSky"},{"name":"Sun","children":[139],"translation":[0,1000,0],"rotation":[0.449038178,0.367099524,-0.20938991,0.78724736],"scale":[1,0.99999994,1]},{"name":"origin"},{"name":"_PerceptionSettings"},{"name":"view_cam","children":[140],"translation":[1.307,0.614,-0.061],"rotation":[0.06162845,-0.704416037,0.06162845,0.704416037],"scale":[1,0.7479371,0.952062964]},{"name":"force_visual","mesh":0,"scale":[0.1,0.1,0.1]},{"name":"thruster_8","children":[6],"translation":[0.117,-0.03,-0.396],"rotation":[-0.7071068,0,0,0.7071068]},{"name":"force_visual","mesh":0,"scale":[0.1,0.1,0.1]},{"name":"thruster_7","children":[8],"translation":[0.117,-0.03,0.396],"rotation":[-0.7071068,0,0,0.7071068]},{"name":"force_visual","mesh":0,"scale":[0.1,0.1,0.1]},{"name":"thruster_6","children":[10],"translation":[-0.117,-0.03,-0.396],"rotation":[-0.7071068,0,0,0.7071068]},{"name":"force_visual","mesh":0,"scale":[0.1,0.1,0.1]},{"name":"thruster_5","children":[12],"translation":[-0.117,-0.03,0.396],"rotation":[-0.7071068,0,0,0.7071068]},{"name":"force_visual","mesh":0,"scale":[0.1,0.1,0.1]},{"name":"thruster_4","children":[14],"translation":[0.241,-0.03,-0.309],"rotation":[0,0.382683426,0,0.923879564]},{"name":"force_visual","mesh":0,"scale":[0.1,0.1,0.1]},{"name":"thruster_3","children":[16],"translation":[0.241,-0.03,0.309],"rotation":[0,0.923879564,0,0.382683426]},{"name":"force_visual","mesh":0,"scale":[0.1,0.1,0.1]},{"name":"thruster_2","children":[18],"translation":[-0.241,-0.03,-0.309],"rotation":[0,-0.382683426,0,0.923879564]},{"name":"force_visual","mesh":0,"scale":[0.1,0.1,0.1]},{"name":"thruster_1","children":[20],"translation":[-0.241,-0.03,0.309],"rotation":[0,-0.923879564,0,0.382683426]},{"name":"centerofmass_ref","translation":[0,0.03,0]},{"name":"Boss-Extrude1","mesh":1,"translation":[0,0,-0.0282575227],"rotation":[-0.5,-0.5,-0.5,-0.49999997]},{"name":"Boss-Extrude1 1","mesh":2,"translation":[0,-0.07633223,-0.104589686],"rotation":[-0.5,-0.5,-0.5,-0.49999997]},{"name":"Boss-Extrude1 2","mesh":3,"translation":[0,0.07633217,0.0480746441],"rotation":[-0.5,-0.5,-0.5,-0.49999997]},{"name":"Boss-Extrude1 3","mesh":4,"translation":[0,0.07633217,-0.104589686],"rotation":[-0.5,-0.5,-0.5,-0.49999997]},{"name":"Boss-Extrude1 4","mesh":5,"translation":[0,-0.07633223,0.0480746441],"rotation":[-0.5,-0.5,-0.5,-0.49999997]},{"name":"Boss-Extrude2","mesh":6,"translation":[0.260849983,0.09207504,0.114490427],"rotation":[-0.7071068,-0.7071068,-1.99496043E-07,-1.99496029E-07]},{"name":"Boss-Extrude2 1","mesh":7,"translation":[-0.25985,-0.0920750052,0.113982461],"rotation":[0.7071067,-0.7071068,-1.99496029E-07,1.99496E-07]},{"name":"Cut-Extrude1","mesh":8,"translation":[-0.06508749,0.333374918,-0.029272994],"rotation":[0.7071068,1.54138206E-15,1.54138185E-15,0.7071067]},{"name":"Cut-Extrude1 1","mesh":9,"translation":[0.2692858,0.184739217,-0.162496567],"rotation":[-0.270598054,-0.653281569,-0.65328145,-0.270598]},{"name":"Cut-Extrude1 2","mesh":10,"translation":[0.0523874648,0.333374918,-0.029272994],"rotation":[0.7071068,1.51849746E-15,1.51849714E-15,0.7071067]},{"name":"Cut-Extrude1 3","mesh":11,"translation":[0.0523874648,-0.333375,-0.0287650283],"rotation":[-1.99496043E-07,-0.7071068,-0.7071068,-1.99496029E-07]},{"name":"Cut-Extrude1 4","mesh":12,"translation":[-0.06508749,-0.333375,-0.0287660211],"rotation":[-1.99496043E-07,-0.7071068,-0.7071068,-1.99496029E-07]},{"name":"Cut-Extrude1 5","mesh":13,"translation":[-0.286475927,-0.18922931,0.104203492],"rotation":[-0.653281569,0.270598054,-0.270597935,0.65328145]},{"name":"Cut-Extrude1 6","mesh":14,"translation":[0.273775935,-0.18922931,-0.161988527],"rotation":[0.270598054,-0.653281569,-0.65328145,0.270598]},{"name":"Cut-Extrude1 7","mesh":15,"translation":[-0.1383017,0.3284233,-0.162496567],"rotation":[0.270598084,-0.653281569,-0.6532814,0.270598024]},{"name":"Cut-Extrude2","mesh":16,"translation":[-0.292529255,0,-0.0282575227],"rotation":[-3.66185876E-17,3.66185843E-17,0.7071068,0.7071068]},{"name":"Cut-Extrude2 1","mesh":17,"translation":[0.292529285,0,-0.0282575227],"rotation":[-0.7071068,-0.7071068,-1.99496043E-07,-1.99496029E-07]},{"name":"Fillet1","mesh":18,"translation":[-0.3000375,-0.05079996,-0.0282575227],"rotation":[-0.5,-0.5,-0.5,-0.49999997]},{"name":"Fillet1 1","mesh":19,"translation":[0.260349959,0.146049961,-0.1552575],"rotation":[-0.49999997,-0.5000001,0.5,0.499999881]},{"name":"Fillet1 2","mesh":20,"translation":[0.120650023,0.333374918,-0.162369519],"rotation":[0.5,-0.50000006,0.5,-0.4999999]},{"name":"Fillet1 3","mesh":21,"translation":[0.120650023,-0.333375,-0.16871956],"rotation":[-0.5,-0.5,-0.5,-0.49999997]},{"name":"Fillet1 4","mesh":22,"translation":[0.260349959,-0.146049976,-0.1552575],"rotation":[0.5,-0.50000006,0.5,-0.4999999]},{"name":"Fillet1 5","mesh":23,"translation":[0.009842453,0,-0.0282575227],"rotation":[0.7071067,-0.7071068,-1.99496029E-07,1.99496E-07]},{"name":"Fillet1 6","mesh":24,"translation":[0.260349959,0.146049961,0.09874245],"rotation":[-0.5,-0.5,-0.5,-0.49999997]},{"name":"Fillet1 7","mesh":25,"translation":[0.260349959,-0.146049976,0.09874245],"rotation":[0.5,-0.5000002,-0.49999997,0.499999851]},{"name":"Fillet1 8","mesh":26,"translation":[0.120650023,0.146049961,-0.1557655],"rotation":[-0.49999997,-0.5000001,0.5,0.499999881]},{"name":"Fillet1 9","mesh":27,"translation":[0.120650023,-0.146049976,-0.1557655],"rotation":[0.5,-0.50000006,0.5,-0.4999999]},{"name":"Fillet1 10","mesh":28,"translation":[0.120650023,0.146049961,0.09823448],"rotation":[-0.5,-0.5,-0.5,-0.49999997]},{"name":"Fillet1 11","mesh":29,"translation":[0.120650023,-0.146049976,0.09823448],"rotation":[0.5,-0.5000002,-0.49999997,0.499999851]},{"name":"Fillet1 12","mesh":30,"translation":[-0.133349985,0.146049961,-0.1557655],"rotation":[-0.49999997,-0.5000001,0.5,0.499999881]},{"name":"Fillet1 13","mesh":31,"translation":[-0.133349985,-0.146049976,-0.1557655],"rotation":[0.5,-0.50000006,0.5,-0.4999999]},{"name":"Fillet1 14","mesh":32,"translation":[-0.133349985,0.146049961,0.09823448],"rotation":[-0.5,-0.5,-0.5,-0.49999997]},{"name":"Fillet1 15","mesh":33,"translation":[-0.133349985,-0.146049976,0.09823448],"rotation":[0.5,-0.5000002,-0.49999997,0.499999851]},{"name":"Fillet1 16","mesh":34,"translation":[0.120650023,-0.333375,0.104838483],"rotation":[-0.5,-0.5,-0.5,-0.49999997]},{"name":"Fillet1 17","mesh":35,"translation":[0.120650023,0.333374918,0.110680461],"rotation":[0.5,-0.50000006,0.5,-0.4999999]},{"name":"Fillet1 18","mesh":36,"translation":[-0.26035,0.146049961,-0.1557655],"rotation":[-0.49999997,-0.5000001,0.5,0.499999881]},{"name":"Fillet1 19","mesh":37,"translation":[-0.26035,-0.146049976,-0.1557655],"rotation":[0.5,-0.50000006,0.5,-0.4999999]},{"name":"Fillet1 20","mesh":38,"translation":[-0.26035,0.146049961,0.09823448],"rotation":[-0.5,-0.5,-0.5,-0.49999997]},{"name":"Fillet1 21","mesh":39,"translation":[-0.26035,-0.146049976,0.09823448],"rotation":[0.5,-0.5000002,-0.49999997,0.499999851]},{"name":"Fillet1 22","mesh":40,"translation":[-0.3000375,0.050800018,-0.0282575227],"rotation":[-0.5,-0.5,-0.5,-0.49999997]},{"name":"Fillet2","mesh":41,"translation":[0.200342476,0,-0.0282575227],"rotation":[-0.7071068,-0.7071068,-1.99496043E-07,-1.99496029E-07]},{"name":"Fillet2 1","mesh":42,"translation":[0.2511425,0,-0.0282575227],"rotation":[-0.7071068,-0.7071068,-1.99496043E-07,-1.99496029E-07]},{"name":"Fillet3","mesh":43,"translation":[-0.269557476,0,-0.0282575227],"rotation":[-0.5,-0.5,-0.5,-0.49999997]},{"name":"Frame Mount Holes","mesh":44,"translation":[-0.263524979,0,-0.0287654866],"rotation":[-0.5,-0.5,-0.5,-0.49999997]},{"name":"Frame Mount Holes 1","mesh":45,"translation":[0.257175058,0,-0.0282575227],"rotation":[-0.5,-0.5,-0.5,-0.49999997]},{"name":"Frame Mount Holes 2","mesh":46,"translation":[0.117475048,0,-0.0287654866],"rotation":[-0.5,-0.5,-0.5,-0.49999997]},{"name":"Frame Mount Holes 3","mesh":47,"translation":[-0.136524975,0,-0.0287654866],"rotation":[-0.5,-0.5,-0.5,-0.49999997]},{"name":"Hole1","mesh":48,"translation":[0.2511425,-0.09144001,-0.0300354753],"rotation":[-0.5,-0.5,-0.5,-0.49999997]},{"name":"PUBLICT100-P-NOSE-CONE-R1-1-solid1","mesh":49,"translation":[-0.06508749,0.277375,-0.0345247649],"rotation":[-2.82129974E-07,-1,-2.82129974E-07,-7.95973259E-14]},{"name":"PUBLICT100-P-NOSE-CONE-R1-1-solid1 1","mesh":50,"translation":[0.0523874648,0.277375,-0.0345247649],"rotation":[-2.82129974E-07,-1,-2.82129974E-07,-7.95973259E-14]},{"name":"PUBLICT100-P-NOSE-CONE-R1-1-solid1 2","mesh":51,"translation":[0.0523874648,-0.277375,-0.0340168],"rotation":[1,1.75879377E-16,4.96208435E-23,2.82129974E-07]},{"name":"PUBLICT100-P-NOSE-CONE-R1-1-solid1 3","mesh":52,"translation":[-0.06508749,-0.277375,-0.03401779],"rotation":[1,1.75879377E-16,4.96208435E-23,2.82129974E-07]},{"name":"PUBLICT100-P-NOSE-CONE-R1-1-solid1 4","mesh":53,"translation":[-0.2505183,0.30438292,-0.0294005573],"rotation":[0.653281569,0.270598,0.6532814,-0.270598084]},{"name":"PUBLICT100-P-NOSE-CONE-R1-1-solid1 5","mesh":54,"translation":[-0.2505183,-0.30438292,-0.0288925171],"rotation":[0.270598084,0.65328145,-0.270598084,0.6532815]},{"name":"PUBLICT100-P-NOSE-CONE-R1-1-solid1 6","mesh":55,"translation":[0.237818286,-0.30438292,-0.0288925171],"rotation":[0.270598054,-0.6532814,0.270597965,0.6532816]},{"name":"PUBLICT100-P-NOSE-CONE-R1-1-solid1 7","mesh":56,"translation":[0.237818286,0.30438292,-0.0294005573],"rotation":[0.6532815,-0.270598054,-0.65328145,-0.270598054]},{"name":"PUBLICT100-P-NOZZLE-R1-1-solid1","mesh":57,"translation":[-0.06508749,0.277375,-0.0345247649],"rotation":[-2.82129974E-07,-1,-2.82129974E-07,-7.95973259E-14]},{"name":"PUBLICT100-P-NOZZLE-R1-1-solid1 1","mesh":58,"translation":[0.0523874648,-0.277375,-0.0340168],"rotation":[1,1.75879377E-16,4.96208435E-23,2.82129974E-07]},{"name":"PUBLICT100-P-NOZZLE-R1-1-solid1 2","mesh":59,"translation":[-0.06508749,-0.277375,-0.03401779],"rotation":[1,1.75879377E-16,4.96208435E-23,2.82129974E-07]},{"name":"PUBLICT100-P-NOZZLE-R1-1-solid1 3","mesh":60,"translation":[-0.2505183,0.30438292,-0.0294005573],"rotation":[0.653281569,0.270598,0.6532814,-0.270598084]},{"name":"PUBLICT100-P-NOZZLE-R1-1-solid1 4","mesh":61,"translation":[-0.2505183,-0.30438292,-0.0288925171],"rotation":[0.270598084,0.65328145,-0.270598084,0.6532815]},{"name":"PUBLICT100-P-NOZZLE-R1-1-solid1 5","mesh":62,"translation":[0.237818286,-0.30438292,-0.0288925171],"rotation":[0.270598054,-0.6532814,0.270597965,0.6532816]},{"name":"PUBLICT100-P-NOZZLE-R1-1-solid1 6","mesh":63,"translation":[0.237818286,0.30438292,-0.0294005573],"rotation":[0.6532815,-0.270598054,-0.65328145,-0.270598054]},{"name":"PUBLICT100-P-NOZZLE-R1-1-solid1 7","mesh":64,"translation":[0.0523874648,0.277375,-0.0345247649],"rotation":[-2.82129974E-07,-1,-2.82129974E-07,-7.95973259E-14]},{"name":"PUBLICT200-P-PROPELLER-CW-XJ3-3-solid1","mesh":65,"translation":[0.0523874648,0.277375,-0.0345247649],"rotation":[-2.82129974E-07,-1,-2.82129974E-07,-7.95973259E-14]},{"name":"PUBLICT200-P-PROPELLER-CW-XJ3-3-solid1 1","mesh":66,"translation":[-0.06508749,0.277375,-0.0345247649],"rotation":[-2.82129974E-07,-1,-2.82129974E-07,-7.95973259E-14]},{"name":"PUBLICT200-P-PROPELLER-CW-XJ3-3-solid1 2","mesh":67,"translation":[0.0523874648,-0.277375,-0.0340168],"rotation":[1,1.75879377E-16,4.96208435E-23,2.82129974E-07]},{"name":"PUBLICT200-P-PROPELLER-CW-XJ3-3-solid1 3","mesh":68,"translation":[-0.06508749,-0.277375,-0.03401779],"rotation":[1,1.75879377E-16,4.96208435E-23,2.82129974E-07]},{"name":"PUBLICT200-P-PROPELLER-CW-XJ3-3-solid1 4","mesh":69,"translation":[-0.2505183,0.30438292,-0.0294005573],"rotation":[0.653281569,0.270598,0.6532814,-0.270598084]},{"name":"PUBLICT200-P-PROPELLER-CW-XJ3-3-solid1 5","mesh":70,"translation":[-0.2505183,-0.30438292,-0.0288925171],"rotation":[0.270598084,0.65328145,-0.270598084,0.6532815]},{"name":"PUBLICT200-P-PROPELLER-CW-XJ3-3-solid1 6","mesh":71,"translation":[0.237818286,-0.30438292,-0.0288925171],"rotation":[0.270598054,-0.6532814,0.270597965,0.6532816]},{"name":"PUBLICT200-P-PROPELLER-CW-XJ3-3-solid1 7","mesh":72,"translation":[0.237818286,0.30438292,-0.0294005573],"rotation":[0.6532815,-0.270598054,-0.65328145,-0.270598054]},{"name":"PUBLICT200-P-STATOR-BASE-R1-1-solid1","mesh":73,"translation":[-0.06508749,0.277375,-0.0345247649],"rotation":[-2.82129974E-07,-1,-2.82129974E-07,-7.95973259E-14]},{"name":"PUBLICT200-P-STATOR-BASE-R1-1-solid1 1","mesh":74,"translation":[0.0523874648,-0.277375,-0.0340168],"rotation":[1,1.75879377E-16,4.96208435E-23,2.82129974E-07]},{"name":"PUBLICT200-P-STATOR-BASE-R1-1-solid1 2","mesh":75,"translation":[-0.06508749,-0.277375,-0.03401779],"rotation":[1,1.75879377E-16,4.96208435E-23,2.82129974E-07]},{"name":"PUBLICT200-P-STATOR-BASE-R1-1-solid1 3","mesh":76,"translation":[-0.2505183,0.30438292,-0.0294005573],"rotation":[0.653281569,0.270598,0.6532814,-0.270598084]},{"name":"PUBLICT200-P-STATOR-BASE-R1-1-solid1 4","mesh":77,"translation":[-0.2505183,-0.30438292,-0.0288925171],"rotation":[0.270598084,0.65328145,-0.270598084,0.6532815]},{"name":"PUBLICT200-P-STATOR-BASE-R1-1-solid1 5","mesh":78,"translation":[0.237818286,-0.30438292,-0.0288925171],"rotation":[0.270598054,-0.6532814,0.270597965,0.6532816]},{"name":"PUBLICT200-P-STATOR-BASE-R1-1-solid1 6","mesh":79,"translation":[0.237818286,0.30438292,-0.0294005573],"rotation":[0.6532815,-0.270598054,-0.65328145,-0.270598054]},{"name":"PUBLICT200-P-STATOR-BASE-R1-1-solid1 7","mesh":80,"translation":[0.0523874648,0.277375,-0.0345247649],"rotation":[-2.82129974E-07,-1,-2.82129974E-07,-7.95973259E-14]},{"name":"Vertical Holes Bottom","mesh":81,"translation":[-0.00635002134,0.336549968,-0.0292735286],"rotation":[0.7071068,1.538779E-15,1.51270248E-15,0.7071067]},{"name":"Vertical Holes Bottom 1","mesh":82,"translation":[-0.00635002134,-0.336549968,-0.0287654866],"rotation":[-1.99496043E-07,-0.7071068,-0.7071068,-1.99496029E-07]},{"name":"Seawolf8_lowpoly","children":[23,24,25,26,27,28,29,30,31,32,33,34,35,36,37,38,39,40,41,42,43,44,45,46,47,48,49,50,51,52,53,54,55,56,57,58,59,60,61,62,63,64,65,66,67,68,69,70,71,72,73,74,75,76,77,78,79,80,81,82,83,84,85,86,87,88,89,90,91,92,93,94,95,96,97,98,99,100,101,102,103,104],"rotation":[-0.7071068,0,0,0.7071068]},{"name":"env_force_visual","mesh":89,"rotation":[-0.7071068,0,0,0.7071068],"scale":[0.1,0.1,0.1]},{"name":"down_camera_perception","children":[141],"translation":[0.3,-0.200000048,0],"rotation":[0.7071068,0,0,0.7071068],"scale":[1,1,0.6999999]},{"name":"light_rays","rotation":[0.7071068,0,0,0.7071068],"scale":[1,1,2.04081631]},{"name":"front_camera_perception","children":[142,108],"translation":[-0.3,-0.200000048,0],"rotation":[0,-0.7071068,0,0.7071068],"scale":[1,0.48999998,1]},{"name":"cube_wolf","children":[5,7,9,11,13,15,17,19,21,22,105,106,107,109],"translation":[1.58,-0.16,1.11],"rotation":[0,0.0335878022,0,0.9994358]},{"name":"center_of_mass_reference","translation":[0,1.504,1.52],"rotation":[-0.7071068,0,0,0.7071068]},{"name":"env_force_visual","mesh":89,"translation":[0,1.504,1.52],"rotation":[-0.7071068,0,0,0.7071068],"scale":[0.099999994,0.099999994,0.2]},{"name":"default","mesh":83},{"name":"2023gate_root","children":[113]},{"name":"2023gate","children":[114]},{"name":"Bottom","mesh":84,"translation":[0,-0.25,0],"scale":[0.099999994,0.5,0.099999994]},{"name":"Top","mesh":90,"translation":[0,0.25,0],"scale":[0.099999994,0.5,0.099999994]},{"name":"LeftPole","children":[116,117],"translation":[0.04,0.75,3.01],"scale":[1,1.2,1]},{"name":"Bottom","mesh":84,"translation":[0.04,-0.25,0.04],"scale":[0.1,0.5,0.1]},{"name":"Top","mesh":90,"translation":[0.04,0.25,0.04],"scale":[0.1,0.5,0.1]},{"name":"RightPole","children":[119,120],"translation":[0,0.75,0],"scale":[1,1.2,1]},{"name":"LeftFlag","mesh":91,"translation":[0.04,1.4,0.75],"scale":[0.01,0.2,0.15]},{"name":"RightFlag","mesh":84,"translation":[0.04,1.4,2.2],"scale":[0.01,0.2,0.15]},{"name":"MiddlePole","mesh":84,"translation":[0.04,1.184,1.52],"scale":[0.025,0.5,0.1]},{"name":"Gate","children":[111,112,115,118,121,122,123,124],"translation":[-3.739,-1.538,0]},{"name":"Capsule","mesh":85,"rotation":[0.7071068,0,0,0.7071068],"scale":[0.5,1,0.1]},{"name":"env_force_visual","mesh":89,"rotation":[-0.7071068,0,0,0.7071068],"scale":[0.099999994,0.09999999,0.199999973]},{"name":"path","children":[126,127],"translation":[-12.81,-9.68,-23.63],"rotation":[0,-0.3288207,0,0.9443924]},{"name":"Pool","translation":[0,0,0.5000001],"rotation":[0.7071068,0,0,0.7071068],"scale":[1,10,1]},{"name":"pool post process","rotation":[0.7071068,0,0,0.7071068]},{"name":"waterbody","children":[129,130],"translation":[0,0,0.0351],"scale":[0.2,0.15,0.05]},{"name":"Pool","mesh":86,"translation":[0,0,0.0423],"rotation":[0.7071068,0,0,0.7071068],"scale":[0.8,2,1.1]},{"name":"pool v1","children":[131,132],"translation":[-10.92,-9,15.245],"rotation":[-0.5,-0.5,-0.5,0.5],"scale":[400,300,150]},{"name":"Body1","mesh":87},{"name":"Body2","mesh":88},{"name":"buoy v8","children":[134,135],"rotation":[0.7071068,0,0,0.7071068]},{"name":"Buoy","children":[136],"translation":[-6.15,-1.859,1.67]},{"name":"env","children":[125,128,133,137]},{"name":"Sun_Orientation","rotation":[0,-1,0,-4.371139E-08],"extensions":{"KHR_lights_punctual":{"light":0}}},{"name":"view_cam_Orientation","rotation":[0,-1,0,-4.371139E-08],"camera":0},{"name":"down_camera_perception_Orientation","rotation":[0,-1,0,-4.371139E-08],"camera":1},{"name":"front_camera_perception_Orientation","rotation":[0,-1,0,-4.371139E-08],"camera":2}],"extensionsRequired":["KHR_materials_clearcoat","KHR_lights_punctual"],"extensionsUsed":["KHR_materials_clearcoat","KHR_lights_punctual"],"buffers":[{"uri":"RectPoolScene.bin","byteLength":850776}],"bufferViews":[{"buffer":0,"byteLength":72,"target":34963},{"buffer":0,"byteLength":4992,"byteOffset":72,"target":34963},{"buffer":0,"byteLength":96,"byteOffset":5064,"target":34963},{"buffer":0,"byteLength":474,"byteOffset":5160,"target":34963},{"buffer":0,"byteLength":216,"byteOffset":5634,"target":34963},{"buffer":0,"byteLength":1968,"byteOffset":5850,"target":34963},{"buffer":0,"byteLength":72,"byteOffset":7818,"target":34963},{"buffer":0,"byteLength":72,"byteOffset":7890,"target":34963},{"buffer":0,"byteLength":72,"byteOffset":7962,"target":34963},{"buffer":0,"byteLength":72,"byteOffset":8034,"target":34963},{"buffer":0,"byteLength":948,"byteOffset":8106,"target":34963},{"buffer":0,"byteLength":948,"byteOffset":9054,"target":34963},{"buffer":0,"byteLength":420,"byteOffset":10002,"target":34963},{"buffer":0,"byteLength":540,"byteOffset":10422,"target":34963},{"buffer":0,"byteLength":420,"byteOffset":10962,"target":34963},{"buffer":0,"byteLength":420,"byteOffset":11382,"target":34963},{"buffer":0,"byteLength":420,"byteOffset":11802,"target":34963},{"buffer":0,"byteLength":540,"byteOffset":12222,"target":34963},{"buffer":0,"byteLength":540,"byteOffset":12762,"target":34963},{"buffer":0,"byteLength":540,"byteOffset":13302,"target":34963},{"buffer":0,"byteLength":4380,"byteOffset":13842,"target":34963},{"buffer":0,"byteLength":4380,"byteOffset":18222,"target":34963},{"buffer":0,"byteLength":744,"byteOffset":22602,"target":34963},{"buffer":0,"byteLength":96,"byteOffset":23346,"target":34963},{"buffer":0,"byteLength":3840,"byteOffset":23442,"target":34963},{"buffer":0,"byteLength":3840,"byteOffset":27282,"target":34963},{"buffer":0,"byteLength":96,"byteOffset":31122,"target":34963},{"buffer":0,"byteLength":1248,"byteOffset":31218,"target":34963},{"buffer":0,"byteLength":96,"byteOffset":32466,"target":34963},{"buffer":0,"byteLength":96,"byteOffset":32562,"target":34963},{"buffer":0,"byteLength":96,"byteOffset":32658,"target":34963},{"buffer":0,"byteLength":96,"byteOffset":32754,"target":34963},{"buffer":0,"byteLength":96,"byteOffset":32850,"target":34963},{"buffer":0,"byteLength":96,"byteOffset":32946,"target":34963},{"buffer":0,"byteLength":96,"byteOffset":33042,"target":34963},{"buffer":0,"byteLength":96,"byteOffset":33138,"target":34963},{"buffer":0,"byteLength":96,"byteOffset":33234,"target":34963},{"buffer":0,"byteLength":3840,"byteOffset":33330,"target":34963},{"buffer":0,"byteLength":3840,"byteOffset":37170,"target":34963},{"buffer":0,"byteLength":96,"byteOffset":41010,"target":34963},{"buffer":0,"byteLength":96,"byteOffset":41106,"target":34963},{"buffer":0,"byteLength":96,"byteOffset":41202,"target":34963},{"buffer":0,"byteLength":96,"byteOffset":41298,"target":34963},{"buffer":0,"byteLength":744,"byteOffset":41394,"target":34963},{"buffer":0,"byteLength":1176,"byteOffset":42138,"target":34963},{"buffer":0,"byteLength":1044,"byteOffset":43314,"target":34963},{"buffer":0,"byteLength":1368,"byteOffset":44358,"target":34963},{"buffer":0,"byteLength":2808,"byteOffset":45726,"target":34963},{"buffer":0,"byteLength":2808,"byteOffset":48534,"target":34963},{"buffer":0,"byteLength":2808,"byteOffset":51342,"target":34963},{"buffer":0,"byteLength":2808,"byteOffset":54150,"target":34963},{"buffer":0,"byteLength":564,"byteOffset":56958,"target":34963},{"buffer":0,"byteLength":84,"byteOffset":57522,"target":34963},{"buffer":0,"byteLength":84,"byteOffset":57606,"target":34963},{"buffer":0,"byteLength":84,"byteOffset":57690,"target":34963},{"buffer":0,"byteLength":84,"byteOffset":57774,"target":34963},{"buffer":0,"byteLength":84,"byteOffset":57858,"target":34963},{"buffer":0,"byteLength":84,"byteOffset":57942,"target":34963},{"buffer":0,"byteLength":84,"byteOffset":58026,"target":34963},{"buffer":0,"byteLength":84,"byteOffset":58110,"target":34963},{"buffer":0,"byteLength":474,"byteOffset":58194,"target":34963},{"buffer":0,"byteLength":474,"byteOffset":58668,"target":34963},{"buffer":0,"byteLength":474,"byteOffset":59142,"target":34963},{"buffer":0,"byteLength":474,"byteOffset":59616,"target":34963},{"buffer":0,"byteLength":474,"byteOffset":60090,"target":34963},{"buffer":0,"byteLength":474,"byteOffset":60564,"target":34963},{"buffer":0,"byteLength":474,"byteOffset":61038,"target":34963},{"buffer":0,"byteLength":216,"byteOffset":61512,"target":34963},{"buffer":0,"byteLength":216,"byteOffset":61728,"target":34963},{"buffer":0,"byteLength":216,"byteOffset":61944,"target":34963},{"buffer":0,"byteLength":216,"byteOffset":62160,"target":34963},{"buffer":0,"byteLength":216,"byteOffset":62376,"target":34963},{"buffer":0,"byteLength":216,"byteOffset":62592,"target":34963},{"buffer":0,"byteLength":216,"byteOffset":62808,"target":34963},{"buffer":0,"byteLength":216,"byteOffset":63024,"target":34963},{"buffer":0,"byteLength":1380,"byteOffset":63240,"target":34963},{"buffer":0,"byteLength":1380,"byteOffset":64620,"target":34963},{"buffer":0,"byteLength":1380,"byteOffset":66000,"target":34963},{"buffer":0,"byteLength":1380,"byteOffset":67380,"target":34963},{"buffer":0,"byteLength":1380,"byteOffset":68760,"target":34963},{"buffer":0,"byteLength":1380,"byteOffset":70140,"target":34963},{"buffer":0,"byteLength":1380,"byteOffset":71520,"target":34963},{"buffer":0,"byteLength":1380,"byteOffset":72900,"target":34963},{"buffer":0,"byteLength":1260,"byteOffset":74280,"target":34963},{"buffer":0,"byteLength":1260,"byteOffset":75540,"target":34963},{"buffer":0,"byteLength":1824,"byteOffset":76800,"target":34963},{"buffer":0,"byteLength":5496,"byteOffset":78624,"target":34963},{"buffer":0,"byteLength":6396,"byteOffset":84120,"target":34963},{"buffer":0,"byteLength":7572,"byteOffset":90516,"target":34963},{"buffer":0,"byteLength":1344,"byteOffset":98088,"byteStride":56,"target":34962},{"buffer":0,"byteLength":30800,"byteOffset":99432,"byteStride":56,"target":34962},{"buffer":0,"byteLength":1040,"byteOffset":130232,"byteStride":40,"target":34962},{"buffer":0,"byteLength":1280,"byteOffset":131272,"byteStride":40,"target":34962},{"buffer":0,"byteLength":3480,"byteOffset":132552,"byteStride":40,"target":34962},{"buffer":0,"byteLength":1280,"byteOffset":136032,"byteStride":40,"target":34962},{"buffer":0,"byteLength":5920,"byteOffset":137312,"byteStride":40,"target":34962},{"buffer":0,"byteLength":2560,"byteOffset":143232,"byteStride":40,"target":34962},{"buffer":0,"byteLength":1040,"byteOffset":145792,"byteStride":40,"target":34962},{"buffer":0,"byteLength":1040,"byteOffset":146832,"byteStride":40,"target":34962},{"buffer":0,"byteLength":1040,"byteOffset":147872,"byteStride":40,"target":34962},{"buffer":0,"byteLength":9560,"byteOffset":148912,"byteStride":40,"target":34962},{"buffer":0,"byteLength":9560,"byteOffset":158472,"byteStride":40,"target":34962},{"buffer":0,"byteLength":3200,"byteOffset":168032,"byteStride":40,"target":34962},{"buffer":0,"byteLength":4720,"byteOffset":171232,"byteStride":40,"target":34962},{"buffer":0,"byteLength":3200,"byteOffset":175952,"byteStride":40,"target":34962},{"buffer":0,"byteLength":3200,"byteOffset":179152,"byteStride":40,"target":34962},{"buffer":0,"byteLength":3200,"byteOffset":182352,"byteStride":40,"target":34962},{"buffer":0,"byteLength":4720,"byteOffset":185552,"byteStride":40,"target":34962},{"buffer":0,"byteLength":4720,"byteOffset":190272,"byteStride":40,"target":34962},{"buffer":0,"byteLength":4720,"byteOffset":194992,"byteStride":40,"target":34962},{"buffer":0,"byteLength":30320,"byteOffset":199712,"byteStride":40,"target":34962},{"buffer":0,"byteLength":30320,"byteOffset":230032,"byteStride":40,"target":34962},{"buffer":0,"byteLength":1280,"byteOffset":260352,"byteStride":40,"target":34962},{"buffer":0,"byteLength":16720,"byteOffset":261632,"byteStride":40,"target":34962},{"buffer":0,"byteLength":16720,"byteOffset":278352,"byteStride":40,"target":34962},{"buffer":0,"byteLength":1280,"byteOffset":295072,"byteStride":40,"target":34962},{"buffer":0,"byteLength":8760,"byteOffset":296352,"byteStride":40,"target":34962},{"buffer":0,"byteLength":1280,"byteOffset":305112,"byteStride":40,"target":34962},{"buffer":0,"byteLength":1280,"byteOffset":306392,"byteStride":40,"target":34962},{"buffer":0,"byteLength":1280,"byteOffset":307672,"byteStride":40,"target":34962},{"buffer":0,"byteLength":1280,"byteOffset":308952,"byteStride":40,"target":34962},{"buffer":0,"byteLength":1280,"byteOffset":310232,"byteStride":40,"target":34962},{"buffer":0,"byteLength":1280,"byteOffset":311512,"byteStride":40,"target":34962},{"buffer":0,"byteLength":1280,"byteOffset":312792,"byteStride":40,"target":34962},{"buffer":0,"byteLength":1280,"byteOffset":314072,"byteStride":40,"target":34962},{"buffer":0,"byteLength":16720,"byteOffset":315352,"byteStride":40,"target":34962},{"buffer":0,"byteLength":16720,"byteOffset":332072,"byteStride":40,"target":34962},{"buffer":0,"byteLength":1280,"byteOffset":348792,"byteStride":40,"target":34962},{"buffer":0,"byteLength":1280,"byteOffset":350072,"byteStride":40,"target":34962},{"buffer":0,"byteLength":1280,"byteOffset":351352,"byteStride":40,"target":34962},{"buffer":0,"byteLength":1280,"byteOffset":352632,"byteStride":40,"target":34962},{"buffer":0,"byteLength":8560,"byteOffset":353912,"byteStride":40,"target":34962},{"buffer":0,"byteLength":7560,"byteOffset":362472,"byteStride":40,"target":34962},{"buffer":0,"byteLength":10120,"byteOffset":370032,"byteStride":40,"target":34962},{"buffer":0,"byteLength":16800,"byteOffset":380152,"byteStride":40,"target":34962},{"buffer":0,"byteLength":16800,"byteOffset":396952,"byteStride":40,"target":34962},{"buffer":0,"byteLength":16800,"byteOffset":413752,"byteStride":40,"target":34962},{"buffer":0,"byteLength":16800,"byteOffset":430552,"byteStride":40,"target":34962},{"buffer":0,"byteLength":3720,"byteOffset":447352,"byteStride":40,"target":34962},{"buffer":0,"byteLength":1520,"byteOffset":451072,"byteStride":40,"target":34962},{"buffer":0,"byteLength":1520,"byteOffset":452592,"byteStride":40,"target":34962},{"buffer":0,"byteLength":1520,"byteOffset":454112,"byteStride":40,"target":34962},{"buffer":0,"byteLength":1520,"byteOffset":455632,"byteStride":40,"target":34962},{"buffer":0,"byteLength":1520,"byteOffset":457152,"byteStride":40,"target":34962},{"buffer":0,"byteLength":1520,"byteOffset":458672,"byteStride":40,"target":34962},{"buffer":0,"byteLength":1520,"byteOffset":460192,"byteStride":40,"target":34962},{"buffer":0,"byteLength":1520,"byteOffset":461712,"byteStride":40,"target":34962},{"buffer":0,"byteLength":5920,"byteOffset":463232,"byteStride":40,"target":34962},{"buffer":0,"byteLength":5920,"byteOffset":469152,"byteStride":40,"target":34962},{"buffer":0,"byteLength":5920,"byteOffset":475072,"byteStride":40,"target":34962},{"buffer":0,"byteLength":5920,"byteOffset":480992,"byteStride":40,"target":34962},{"buffer":0,"byteLength":5920,"byteOffset":486912,"byteStride":40,"target":34962},{"buffer":0,"byteLength":5920,"byteOffset":492832,"byteStride":40,"target":34962},{"buffer":0,"byteLength":5920,"byteOffset":498752,"byteStride":40,"target":34962},{"buffer":0,"byteLength":3480,"byteOffset":504672,"byteStride":40,"target":34962},{"buffer":0,"byteLength":3480,"byteOffset":508152,"byteStride":40,"target":34962},{"buffer":0,"byteLength":3480,"byteOffset":511632,"byteStride":40,"target":34962},{"buffer":0,"byteLength":3480,"byteOffset":515112,"byteStride":40,"target":34962},{"buffer":0,"byteLength":3480,"byteOffset":518592,"byteStride":40,"target":34962},{"buffer":0,"byteLength":3480,"byteOffset":522072,"byteStride":40,"target":34962},{"buffer":0,"byteLength":3480,"byteOffset":525552,"byteStride":40,"target":34962},{"buffer":0,"byteLength":15640,"byteOffset":529032,"byteStride":40,"target":34962},{"buffer":0,"byteLength":15640,"byteOffset":544672,"byteStride":40,"target":34962},{"buffer":0,"byteLength":15640,"byteOffset":560312,"byteStride":40,"target":34962},{"buffer":0,"byteLength":15640,"byteOffset":575952,"byteStride":40,"target":34962},{"buffer":0,"byteLength":15640,"byteOffset":591592,"byteStride":40,"target":34962},{"buffer":0,"byteLength":15640,"byteOffset":607232,"byteStride":40,"target":34962},{"buffer":0,"byteLength":15640,"byteOffset":622872,"byteStride":40,"target":34962},{"buffer":0,"byteLength":15640,"byteOffset":638512,"byteStride":40,"target":34962},{"buffer":0,"byteLength":9400,"byteOffset":654152,"byteStride":40,"target":34962},{"buffer":0,"byteLength":9400,"byteOffset":663552,"byteStride":40,"target":34962},{"buffer":0,"byteLength":19280,"byteOffset":672952,"byteStride":40,"target":34962},{"buffer":0,"byteLength":15936,"byteOffset":692232,"byteStride":48,"target":34962},{"buffer":0,"byteLength":7296,"byteOffset":708168,"byteStride":48,"target":34962},{"buffer":0,"byteLength":7296,"byteOffset":715464,"byteStride":48,"target":34962},{"buffer":0,"byteLength":49584,"byteOffset":722760,"byteStride":48,"target":34962},{"buffer":0,"byteLength":40320,"byteOffset":772344,"byteStride":48,"target":34962},{"buffer":0,"byteLength":38112,"byteOffset":812664,"byteStride":48,"target":34962}],"accessors":[{"bufferView":96,"componentType":5126,"count":64,"type":"VEC3","max":[0.20117186,0.20117186,1.00117183],"min":[-0.20117186,-0.20117186,-0.00117188692]},{"bufferView":96,"componentType":5126,"count":64,"type":"VEC3","byteOffset":12},{"bufferView":96,"componentType":5126,"count":64,"type":"VEC4","byteOffset":24},{"bufferView":4,"componentType":5123,"count":108,"type":"SCALAR"},{"bufferView":172,"componentType":5126,"count":332,"type":"VEC3","max":[0.10160058,0.101526022,0.30480057],"min":[-0.101302467,-0.101526022,-0.30480057]},{"bufferView":172,"componentType":5126,"count":332,"type":"VEC3","byteOffset":12},{"bufferView":172,"componentType":5126,"count":332,"type":"VEC4","byteOffset":24},{"bufferView":172,"componentType":5126,"count":332,"type":"VEC2","byteOffset":40},{"bufferView":5,"componentType":5123,"count":984,"type":"SCALAR"},{"bufferView":97,"componentType":5126,"count":26,"type":"VEC3","max":[0.00317562371,0.00252567884,0.327025622],"min":[-0.002945444,-0.00278990017,-0.327025622]},{"bufferView":97,"componentType":5126,"count":26,"type":"VEC3","byteOffset":12},{"bufferView":97,"componentType":5126,"count":26,"type":"VEC4","byteOffset":24},{"bufferView":6,"componentType":5123,"count":36,"type":"SCALAR"},{"bufferView":98,"componentType":5126,"count":26,"type":"VEC3","max":[0.00317562371,0.00252567884,0.327025622],"min":[-0.002945444,-0.00278990017,-0.327025622]},{"bufferView":98,"componentType":5126,"count":26,"type":"VEC3","byteOffset":12},{"bufferView":98,"componentType":5126,"count":26,"type":"VEC4","byteOffset":24},{"bufferView":7,"componentType":5123,"count":36,"type":"SCALAR"},{"bufferView":99,"componentType":5126,"count":26,"type":"VEC3","max":[0.00317562371,0.00252567884,0.327025622],"min":[-0.002945444,-0.00278990017,-0.327025622]},{"bufferView":99,"componentType":5126,"count":26,"type":"VEC3","byteOffset":12},{"bufferView":99,"componentType":5126,"count":26,"type":"VEC4","byteOffset":24},{"bufferView":8,"componentType":5123,"count":36,"type":"SCALAR"},{"bufferView":91,"componentType":5126,"count":26,"type":"VEC3","max":[0.00317562371,0.00252567884,0.327025622],"min":[-0.002945444,-0.00278990017,-0.327025622]},{"bufferView":91,"componentType":5126,"count":26,"type":"VEC3","byteOffset":12},{"bufferView":91,"componentType":5126,"count":26,"type":"VEC4","byteOffset":24},{"bufferView":9,"componentType":5123,"count":36,"type":"SCALAR"},{"bufferView":100,"componentType":5126,"count":239,"type":"VEC3","max":[2.30968E-07,0.0536568165,0.0158752315],"min":[-0.184150249,-0.0158752352,-0.06032523]},{"bufferView":100,"componentType":5126,"count":239,"type":"VEC3","byteOffset":12},{"bufferView":100,"componentType":5126,"count":239,"type":"VEC4","byteOffset":24},{"bufferView":10,"componentType":5123,"count":474,"type":"SCALAR"},{"bufferView":101,"componentType":5126,"count":239,"type":"VEC3","max":[2.30968E-07,0.0536568165,0.0158752315],"min":[-0.184150249,-0.0158752352,-0.06032523]},{"bufferView":101,"componentType":5126,"count":239,"type":"VEC3","byteOffset":12},{"bufferView":101,"componentType":5126,"count":239,"type":"VEC4","byteOffset":24},{"bufferView":11,"componentType":5123,"count":474,"type":"SCALAR"},{"bufferView":102,"componentType":5126,"count":80,"type":"VEC3","max":[0.01424825,0.0474225543,0.00700009],"min":[-0.0146491975,-0.0474225543,-9.033829E-08]},{"bufferView":102,"componentType":5126,"count":80,"type":"VEC3","byteOffset":12},{"bufferView":102,"componentType":5126,"count":80,"type":"VEC4","byteOffset":24},{"bufferView":12,"componentType":5123,"count":210,"type":"SCALAR"},{"bufferView":103,"componentType":5126,"count":118,"type":"VEC3","max":[0.203200445,0.266192436,0.00635044742],"min":[-4.47034836E-07,-4.47034836E-07,-4.47733328E-07]},{"bufferView":103,"componentType":5126,"count":118,"type":"VEC3","byteOffset":12},{"bufferView":103,"componentType":5126,"count":118,"type":"VEC4","byteOffset":24},{"bufferView":13,"componentType":5123,"count":270,"type":"SCALAR"},{"bufferView":104,"componentType":5126,"count":80,"type":"VEC3","max":[0.01424825,0.0474225543,0.00700009],"min":[-0.0146491975,-0.0474225543,-9.033829E-08]},{"bufferView":104,"componentType":5126,"count":80,"type":"VEC3","byteOffset":12},{"bufferView":104,"componentType":5126,"count":80,"type":"VEC4","byteOffset":24},{"bufferView":14,"componentType":5123,"count":210,"type":"SCALAR"},{"bufferView":105,"componentType":5126,"count":80,"type":"VEC3","max":[0.01424825,0.0474225543,0.00700009],"min":[-0.0146491975,-0.0474225543,-9.033829E-08]},{"bufferView":105,"componentType":5126,"count":80,"type":"VEC3","byteOffset":12},{"bufferView":105,"componentType":5126,"count":80,"type":"VEC4","byteOffset":24},{"bufferView":15,"componentType":5123,"count":210,"type":"SCALAR"},{"bufferView":106,"componentType":5126,"count":80,"type":"VEC3","max":[0.01424825,0.0474225543,0.00700009],"min":[-0.0146491975,-0.0474225543,-9.033829E-08]},{"bufferView":106,"componentType":5126,"count":80,"type":"VEC3","byteOffset":12},{"bufferView":106,"componentType":5126,"count":80,"type":"VEC4","byteOffset":24},{"bufferView":16,"componentType":5123,"count":210,"type":"SCALAR"},{"bufferView":107,"componentType":5126,"count":118,"type":"VEC3","max":[0.203200445,0.266192436,0.00635044742],"min":[-4.47034836E-07,-4.47034836E-07,-4.47733328E-07]},{"bufferView":107,"componentType":5126,"count":118,"type":"VEC3","byteOffset":12},{"bufferView":107,"componentType":5126,"count":118,"type":"VEC4","byteOffset":24},{"bufferView":17,"componentType":5123,"count":270,"type":"SCALAR"},{"bufferView":108,"componentType":5126,"count":118,"type":"VEC3","max":[0.203200445,0.266192436,0.00635044742],"min":[-4.47034836E-07,-4.47034836E-07,-4.47733328E-07]},{"bufferView":108,"componentType":5126,"count":118,"type":"VEC3","byteOffset":12},{"bufferView":108,"componentType":5126,"count":118,"type":"VEC4","byteOffset":24},{"bufferView":18,"componentType":5123,"count":270,"type":"SCALAR"},{"bufferView":109,"componentType":5126,"count":118,"type":"VEC3","max":[0.203200445,0.266192436,0.00635044742],"min":[-4.47034836E-07,-4.47034836E-07,-4.47733328E-07]},{"bufferView":109,"componentType":5126,"count":118,"type":"VEC3","byteOffset":12},{"bufferView":109,"componentType":5126,"count":118,"type":"VEC4","byteOffset":24},{"bufferView":19,"componentType":5123,"count":270,"type":"SCALAR"},{"bufferView":110,"componentType":5126,"count":758,"type":"VEC3","max":[0.101600192,0.0186209343,0.101600192],"min":[-0.101600192,-1.937151E-07,-0.101600192]},{"bufferView":110,"componentType":5126,"count":758,"type":"VEC3","byteOffset":12},{"bufferView":110,"componentType":5126,"count":758,"type":"VEC4","byteOffset":24},{"bufferView":20,"componentType":5123,"count":2190,"type":"SCALAR"},{"bufferView":111,"componentType":5126,"count":758,"type":"VEC3","max":[0.101600192,0.0186209343,0.101600192],"min":[-0.101600192,-1.937151E-07,-0.101600192]},{"bufferView":111,"componentType":5126,"count":758,"type":"VEC3","byteOffset":12},{"bufferView":111,"componentType":5126,"count":758,"type":"VEC4","byteOffset":24},{"bufferView":21,"componentType":5123,"count":2190,"type":"SCALAR"},{"bufferView":173,"componentType":5126,"count":152,"type":"VEC3","max":[0.0127000408,0.0127000408,0.0302513056],"min":[-0.0127000408,-0.0127000408,-4.09781933E-08]},{"bufferView":173,"componentType":5126,"count":152,"type":"VEC3","byteOffset":12},{"bufferView":173,"componentType":5126,"count":152,"type":"VEC4","byteOffset":24},{"bufferView":173,"componentType":5126,"count":152,"type":"VEC2","byteOffset":40},{"bufferView":22,"componentType":5123,"count":372,"type":"SCALAR"},{"bufferView":112,"componentType":5126,"count":32,"type":"VEC3","max":[0.0224388726,0.0190500561,0.0150778368],"min":[-0.03757049,-0.017277753,-0.0158290323]},{"bufferView":112,"componentType":5126,"count":32,"type":"VEC3","byteOffset":12},{"bufferView":112,"componentType":5126,"count":32,"type":"VEC4","byteOffset":24},{"bufferView":23,"componentType":5123,"count":48,"type":"SCALAR"},{"bufferView":113,"componentType":5126,"count":418,"type":"VEC3","max":[0.177800581,0.00635058153,0.1778006],"min":[-5.811453E-07,-5.813781E-07,-0.4318006]},{"bufferView":113,"componentType":5126,"count":418,"type":"VEC3","byteOffset":12},{"bufferView":113,"componentType":5126,"count":418,"type":"VEC4","byteOffset":24},{"bufferView":24,"componentType":5123,"count":1920,"type":"SCALAR"},{"bufferView":114,"componentType":5126,"count":418,"type":"VEC3","max":[0.177800581,0.00635058153,0.1778006],"min":[-5.811453E-07,-5.813781E-07,-0.4318006]},{"bufferView":114,"componentType":5126,"count":418,"type":"VEC3","byteOffset":12},{"bufferView":114,"componentType":5126,"count":418,"type":"VEC4","byteOffset":24},{"bufferView":25,"componentType":5123,"count":1920,"type":"SCALAR"},{"bufferView":115,"componentType":5126,"count":32,"type":"VEC3","max":[0.0224388726,0.0190500561,0.0150778368],"min":[-0.03757049,-0.017277753,-0.0158290323]},{"bufferView":115,"componentType":5126,"count":32,"type":"VEC3","byteOffset":12},{"bufferView":115,"componentType":5126,"count":32,"type":"VEC4","byteOffset":24},{"bufferView":26,"componentType":5123,"count":48,"type":"SCALAR"},{"bufferView":116,"componentType":5126,"count":219,"type":"VEC3","max":[0.09722756,0.0508001857,0.09641119],"min":[-0.09722756,-1.86264515E-07,-0.09641119]},{"bufferView":116,"componentType":5126,"count":219,"type":"VEC3","byteOffset":12},{"bufferView":116,"componentType":5126,"count":219,"type":"VEC4","byteOffset":24},{"bufferView":27,"componentType":5123,"count":624,"type":"SCALAR"},{"bufferView":94,"componentType":5126,"count":32,"type":"VEC3","max":[0.0224388726,0.0190500561,0.0150778368],"min":[-0.03757049,-0.017277753,-0.0158290323]},{"bufferView":94,"componentType":5126,"count":32,"type":"VEC3","byteOffset":12},{"bufferView":94,"componentType":5126,"count":32,"type":"VEC4","byteOffset":24},{"bufferView":2,"componentType":5123,"count":48,"type":"SCALAR"},{"bufferView":117,"componentType":5126,"count":32,"type":"VEC3","max":[0.0224388726,0.0190500561,0.0150778368],"min":[-0.03757049,-0.017277753,-0.0158290323]},{"bufferView":117,"componentType":5126,"count":32,"type":"VEC3","byteOffset":12},{"bufferView":117,"componentType":5126,"count":32,"type":"VEC4","byteOffset":24},{"bufferView":28,"componentType":5123,"count":48,"type":"SCALAR"},{"bufferView":118,"componentType":5126,"count":32,"type":"VEC3","max":[0.0224388726,0.0190500561,0.0150778368],"min":[-0.03757049,-0.017277753,-0.0158290323]},{"bufferView":118,"componentType":5126,"count":32,"type":"VEC3","byteOffset":12},{"bufferView":118,"componentType":5126,"count":32,"type":"VEC4","byteOffset":24},{"bufferView":29,"componentType":5123,"count":48,"type":"SCALAR"},{"bufferView":119,"componentType":5126,"count":32,"type":"VEC3","max":[0.0224388726,0.0190500561,0.0150778368],"min":[-0.03757049,-0.017277753,-0.0158290323]},{"bufferView":119,"componentType":5126,"count":32,"type":"VEC3","byteOffset":12},{"bufferView":119,"componentType":5126,"count":32,"type":"VEC4","byteOffset":24},{"bufferView":30,"componentType":5123,"count":48,"type":"SCALAR"},{"bufferView":92,"componentType":5126,"count":32,"type":"VEC3","max":[0.0224388726,0.0190500561,0.0150778368],"min":[-0.03757049,-0.017277753,-0.0158290323]},{"bufferView":92,"componentType":5126,"count":32,"type":"VEC3","byteOffset":12},{"bufferView":92,"componentType":5126,"count":32,"type":"VEC4","byteOffset":24},{"bufferView":31,"componentType":5123,"count":48,"type":"SCALAR"},{"bufferView":120,"componentType":5126,"count":32,"type":"VEC3","max":[0.0224388726,0.0190500561,0.0150778368],"min":[-0.03757049,-0.017277753,-0.0158290323]},{"bufferView":120,"componentType":5126,"count":32,"type":"VEC3","byteOffset":12},{"bufferView":120,"componentType":5126,"count":32,"type":"VEC4","byteOffset":24},{"bufferView":32,"componentType":5123,"count":48,"type":"SCALAR"},{"bufferView":121,"componentType":5126,"count":32,"type":"VEC3","max":[0.0224388726,0.0190500561,0.0150778368],"min":[-0.03757049,-0.017277753,-0.0158290323]},{"bufferView":121,"componentType":5126,"count":32,"type":"VEC3","byteOffset":12},{"bufferView":121,"componentType":5126,"count":32,"type":"VEC4","byteOffset":24},{"bufferView":33,"componentType":5123,"count":48,"type":"SCALAR"},{"bufferView":122,"componentType":5126,"count":32,"type":"VEC3","max":[0.0224388726,0.0190500561,0.0150778368],"min":[-0.03757049,-0.017277753,-0.0158290323]},{"bufferView":122,"componentType":5126,"count":32,"type":"VEC3","byteOffset":12},{"bufferView":122,"componentType":5126,"count":32,"type":"VEC4","byteOffset":24},{"bufferView":34,"componentType":5123,"count":48,"type":"SCALAR"},{"bufferView":123,"componentType":5126,"count":32,"type":"VEC3","max":[0.0224388726,0.0190500561,0.0150778368],"min":[-0.03757049,-0.017277753,-0.0158290323]},{"bufferView":123,"componentType":5126,"count":32,"type":"VEC3","byteOffset":12},{"bufferView":123,"componentType":5126,"count":32,"type":"VEC4","byteOffset":24},{"bufferView":35,"componentType":5123,"count":48,"type":"SCALAR"},{"bufferView":124,"componentType":5126,"count":32,"type":"VEC3","max":[0.0224388726,0.0190500561,0.0150778368],"min":[-0.03757049,-0.017277753,-0.0158290323]},{"bufferView":124,"componentType":5126,"count":32,"type":"VEC3","byteOffset":12},{"bufferView":124,"componentType":5126,"count":32,"type":"VEC4","byteOffset":24},{"bufferView":36,"componentType":5123,"count":48,"type":"SCALAR"},{"bufferView":125,"componentType":5126,"count":418,"type":"VEC3","max":[0.177800581,0.00635058153,0.1778006],"min":[-5.811453E-07,-5.813781E-07,-0.4318006]},{"bufferView":125,"componentType":5126,"count":418,"type":"VEC3","byteOffset":12},{"bufferView":125,"componentType":5126,"count":418,"type":"VEC4","byteOffset":24},{"bufferView":37,"componentType":5123,"count":1920,"type":"SCALAR"},{"bufferView":126,"componentType":5126,"count":418,"type":"VEC3","max":[0.177800581,0.00635058153,0.1778006],"min":[-5.811453E-07,-5.813781E-07,-0.4318006]},{"bufferView":126,"componentType":5126,"count":418,"type":"VEC3","byteOffset":12},{"bufferView":126,"componentType":5126,"count":418,"type":"VEC4","byteOffset":24},{"bufferView":38,"componentType":5123,"count":1920,"type":"SCALAR"},{"bufferView":127,"componentType":5126,"count":32,"type":"VEC3","max":[0.0224388726,0.0190500561,0.0150778368],"min":[-0.03757049,-0.017277753,-0.0158290323]},{"bufferView":127,"componentType":5126,"count":32,"type":"VEC3","byteOffset":12},{"bufferView":127,"componentType":5126,"count":32,"type":"VEC4","byteOffset":24},{"bufferView":39,"componentType":5123,"count":48,"type":"SCALAR"},{"bufferView":128,"componentType":5126,"count":32,"type":"VEC3","max":[0.0224388726,0.0190500561,0.0150778368],"min":[-0.03757049,-0.017277753,-0.0158290323]},{"bufferView":128,"componentType":5126,"count":32,"type":"VEC3","byteOffset":12},{"bufferView":128,"componentType":5126,"count":32,"type":"VEC4","byteOffset":24},{"bufferView":40,"componentType":5123,"count":48,"type":"SCALAR"},{"bufferView":129,"componentType":5126,"count":32,"type":"VEC3","max":[0.0224388726,0.0190500561,0.0150778368],"min":[-0.03757049,-0.017277753,-0.0158290323]},{"bufferView":129,"componentType":5126,"count":32,"type":"VEC3","byteOffset":12},{"bufferView":129,"componentType":5126,"count":32,"type":"VEC4","byteOffset":24},{"bufferView":41,"componentType":5123,"count":48,"type":"SCALAR"},{"bufferView":130,"componentType":5126,"count":32,"type":"VEC3","max":[0.0224388726,0.0190500561,0.0150778368],"min":[-0.03757049,-0.017277753,-0.0158290323]},{"bufferView":130,"componentType":5126,"count":32,"type":"VEC3","byteOffset":12},{"bufferView":130,"componentType":5126,"count":32,"type":"VEC4","byteOffset":24},{"bufferView":42,"componentType":5123,"count":48,"type":"SCALAR"},{"bufferView":174,"componentType":5126,"count":152,"type":"VEC3","max":[0.0127000408,0.0127000408,0.0302513056],"min":[-0.0127000408,-0.0127000408,-4.09781933E-08]},{"bufferView":174,"componentType":5126,"count":152,"type":"VEC3","byteOffset":12},{"bufferView":174,"componentType":5126,"count":152,"type":"VEC4","byteOffset":24},{"bufferView":174,"componentType":5126,"count":152,"type":"VEC2","byteOffset":40},{"bufferView":43,"componentType":5123,"count":372,"type":"SCALAR"},{"bufferView":131,"componentType":5126,"count":214,"type":"VEC3","max":[0.09722756,0.0508001857,0.09750018],"min":[-0.09722756,-1.86264515E-07,-0.09750018]},{"bufferView":131,"componentType":5126,"count":214,"type":"VEC3","byteOffset":12},{"bufferView":131,"componentType":5126,"count":214,"type":"VEC4","byteOffset":24},{"bufferView":44,"componentType":5123,"count":588,"type":"SCALAR"},{"bufferView":132,"componentType":5126,"count":189,"type":"VEC3","max":[0.0975001752,0.0414021872,0.09722588],"min":[-0.09654714,-1.86264515E-07,-0.09750018]},{"bufferView":132,"componentType":5126,"count":189,"type":"VEC3","byteOffset":12},{"bufferView":132,"componentType":5126,"count":189,"type":"VEC4","byteOffset":24},{"bufferView":45,"componentType":5123,"count":522,"type":"SCALAR"},{"bufferView":133,"componentType":5126,"count":253,"type":"VEC3","max":[0.09750018,0.09722756,0.038100183],"min":[-0.09750018,-0.09722756,-0.0234001875]},{"bufferView":133,"componentType":5126,"count":253,"type":"VEC3","byteOffset":12},{"bufferView":133,"componentType":5126,"count":253,"type":"VEC4","byteOffset":24},{"bufferView":46,"componentType":5123,"count":684,"type":"SCALAR"},{"bufferView":134,"componentType":5126,"count":420,"type":"VEC3","max":[0.146050274,0.146050274,0.00635027839],"min":[-0.146050274,-0.146050274,-2.7846545E-07]},{"bufferView":134,"componentType":5126,"count":420,"type":"VEC3","byteOffset":12},{"bufferView":134,"componentType":5126,"count":420,"type":"VEC4","byteOffset":24},{"bufferView":47,"componentType":5123,"count":1404,"type":"SCALAR"},{"bufferView":135,"componentType":5126,"count":420,"type":"VEC3","max":[0.146050274,0.146050274,0.00635027839],"min":[-0.146050274,-0.146050274,-2.7846545E-07]},{"bufferView":135,"componentType":5126,"count":420,"type":"VEC3","byteOffset":12},{"bufferView":135,"componentType":5126,"count":420,"type":"VEC4","byteOffset":24},{"bufferView":48,"componentType":5123,"count":1404,"type":"SCALAR"},{"bufferView":136,"componentType":5126,"count":420,"type":"VEC3","max":[0.146050274,0.146050274,0.00635027839],"min":[-0.146050274,-0.146050274,-2.7846545E-07]},{"bufferView":136,"componentType":5126,"count":420,"type":"VEC3","byteOffset":12},{"bufferView":136,"componentType":5126,"count":420,"type":"VEC4","byteOffset":24},{"bufferView":49,"componentType":5123,"count":1404,"type":"SCALAR"},{"bufferView":137,"componentType":5126,"count":420,"type":"VEC3","max":[0.146050274,0.146050274,0.00635027839],"min":[-0.146050274,-0.146050274,-2.7846545E-07]},{"bufferView":137,"componentType":5126,"count":420,"type":"VEC3","byteOffset":12},{"bufferView":137,"componentType":5126,"count":420,"type":"VEC4","byteOffset":24},{"bufferView":50,"componentType":5123,"count":1404,"type":"SCALAR"},{"bufferView":138,"componentType":5126,"count":93,"type":"VEC3","max":[0.182880491,0.00317548751,4.76837158E-07],"min":[-4.84287739E-07,-4.87547368E-07,-0.508000433]},{"bufferView":138,"componentType":5126,"count":93,"type":"VEC3","byteOffset":12},{"bufferView":138,"componentType":5126,"count":93,"type":"VEC4","byteOffset":24},{"bufferView":51,"componentType":5123,"count":282,"type":"SCALAR"},{"bufferView":139,"componentType":5126,"count":38,"type":"VEC3","max":[0.0196254123,0.0173728764,0.06575667],"min":[-0.01753022,-0.0164101273,0.0419999138]},{"bufferView":139,"componentType":5126,"count":38,"type":"VEC3","byteOffset":12},{"bufferView":139,"componentType":5126,"count":38,"type":"VEC4","byteOffset":24},{"bufferView":52,"componentType":5123,"count":42,"type":"SCALAR"},{"bufferView":140,"componentType":5126,"count":38,"type":"VEC3","max":[0.0196254123,0.0173728764,0.06575667],"min":[-0.01753022,-0.0164101273,0.0419999138]},{"bufferView":140,"componentType":5126,"count":38,"type":"VEC3","byteOffset":12},{"bufferView":140,"componentType":5126,"count":38,"type":"VEC4","byteOffset":24},{"bufferView":53,"componentType":5123,"count":42,"type":"SCALAR"},{"bufferView":141,"componentType":5126,"count":38,"type":"VEC3","max":[0.0196254123,0.0173728764,0.06575667],"min":[-0.01753022,-0.0164101273,0.0419999138]},{"bufferView":141,"componentType":5126,"count":38,"type":"VEC3","byteOffset":12},{"bufferView":141,"componentType":5126,"count":38,"type":"VEC4","byteOffset":24},{"bufferView":54,"componentType":5123,"count":42,"type":"SCALAR"},{"bufferView":142,"componentType":5126,"count":38,"type":"VEC3","max":[0.0196254123,0.0173728764,0.06575667],"min":[-0.01753022,-0.0164101273,0.0419999138]},{"bufferView":142,"componentType":5126,"count":38,"type":"VEC3","byteOffset":12},{"bufferView":142,"componentType":5126,"count":38,"type":"VEC4","byteOffset":24},{"bufferView":55,"componentType":5123,"count":42,"type":"SCALAR"},{"bufferView":143,"componentType":5126,"count":38,"type":"VEC3","max":[0.0196254123,0.0173728764,0.06575667],"min":[-0.01753022,-0.0164101273,0.0419999138]},{"bufferView":143,"componentType":5126,"count":38,"type":"VEC3","byteOffset":12},{"bufferView":143,"componentType":5126,"count":38,"type":"VEC4","byteOffset":24},{"bufferView":56,"componentType":5123,"count":42,"type":"SCALAR"},{"bufferView":144,"componentType":5126,"count":38,"type":"VEC3","max":[0.0196254123,0.0173728764,0.06575667],"min":[-0.01753022,-0.0164101273,0.0419999138]},{"bufferView":144,"componentType":5126,"count":38,"type":"VEC3","byteOffset":12},{"bufferView":144,"componentType":5126,"count":38,"type":"VEC4","byteOffset":24},{"bufferView":57,"componentType":5123,"count":42,"type":"SCALAR"},{"bufferView":145,"componentType":5126,"count":38,"type":"VEC3","max":[0.0196254123,0.0173728764,0.06575667],"min":[-0.01753022,-0.0164101273,0.0419999138]},{"bufferView":145,"componentType":5126,"count":38,"type":"VEC3","byteOffset":12},{"bufferView":145,"componentType":5126,"count":38,"type":"VEC4","byteOffset":24},{"bufferView":58,"componentType":5123,"count":42,"type":"SCALAR"},{"bufferView":146,"componentType":5126,"count":38,"type":"VEC3","max":[0.0196254123,0.0173728764,0.06575667],"min":[-0.01753022,-0.0164101273,0.0419999138]},{"bufferView":146,"componentType":5126,"count":38,"type":"VEC3","byteOffset":12},{"bufferView":146,"componentType":5126,"count":38,"type":"VEC4","byteOffset":24},{"bufferView":59,"componentType":5123,"count":42,"type":"SCALAR"},{"bufferView":147,"componentType":5126,"count":148,"type":"VEC3","max":[0.0468565673,0.04900009,0.0217280984],"min":[-0.0468565673,-0.0466655642,-0.04165346]},{"bufferView":147,"componentType":5126,"count":148,"type":"VEC3","byteOffset":12},{"bufferView":147,"componentType":5126,"count":148,"type":"VEC4","byteOffset":24},{"bufferView":60,"componentType":5123,"count":237,"type":"SCALAR"},{"bufferView":148,"componentType":5126,"count":148,"type":"VEC3","max":[0.0468565673,0.04900009,0.0217280984],"min":[-0.0468565673,-0.0466655642,-0.04165346]},{"bufferView":148,"componentType":5126,"count":148,"type":"VEC3","byteOffset":12},{"bufferView":148,"componentType":5126,"count":148,"type":"VEC4","byteOffset":24},{"bufferView":61,"componentType":5123,"count":237,"type":"SCALAR"},{"bufferView":149,"componentType":5126,"count":148,"type":"VEC3","max":[0.0468565673,0.04900009,0.0217280984],"min":[-0.0468565673,-0.0466655642,-0.04165346]},{"bufferView":149,"componentType":5126,"count":148,"type":"VEC3","byteOffset":12},{"bufferView":149,"componentType":5126,"count":148,"type":"VEC4","byteOffset":24},{"bufferView":62,"componentType":5123,"count":237,"type":"SCALAR"},{"bufferView":150,"componentType":5126,"count":148,"type":"VEC3","max":[0.0468565673,0.04900009,0.0217280984],"min":[-0.0468565673,-0.0466655642,-0.04165346]},{"bufferView":150,"componentType":5126,"count":148,"type":"VEC3","byteOffset":12},{"bufferView":150,"componentType":5126,"count":148,"type":"VEC4","byteOffset":24},{"bufferView":63,"componentType":5123,"count":237,"type":"SCALAR"},{"bufferView":151,"componentType":5126,"count":148,"type":"VEC3","max":[0.0468565673,0.04900009,0.0217280984],"min":[-0.0468565673,-0.0466655642,-0.04165346]},{"bufferView":151,"componentType":5126,"count":148,"type":"VEC3","byteOffset":12},{"bufferView":151,"componentType":5126,"count":148,"type":"VEC4","byteOffset":24},{"bufferView":64,"componentType":5123,"count":237,"type":"SCALAR"},{"bufferView":152,"componentType":5126,"count":148,"type":"VEC3","max":[0.0468565673,0.04900009,0.0217280984],"min":[-0.0468565673,-0.0466655642,-0.04165346]},{"bufferView":152,"componentType":5126,"count":148,"type":"VEC3","byteOffset":12},{"bufferView":152,"componentType":5126,"count":148,"type":"VEC4","byteOffset":24},{"bufferView":65,"componentType":5123,"count":237,"type":"SCALAR"},{"bufferView":95,"componentType":5126,"count":148,"type":"VEC3","max":[0.0468565673,0.04900009,0.0217280984],"min":[-0.0468565673,-0.0466655642,-0.04165346]},{"bufferView":95,"componentType":5126,"count":148,"type":"VEC3","byteOffset":12},{"bufferView":95,"componentType":5126,"count":148,"type":"VEC4","byteOffset":24},{"bufferView":3,"componentType":5123,"count":237,"type":"SCALAR"},{"bufferView":153,"componentType":5126,"count":148,"type":"VEC3","max":[0.0468565673,0.04900009,0.0217280984],"min":[-0.0468565673,-0.0466655642,-0.04165346]},{"bufferView":153,"componentType":5126,"count":148,"type":"VEC3","byteOffset":12},{"bufferView":153,"componentType":5126,"count":148,"type":"VEC4","byteOffset":24},{"bufferView":66,"componentType":5123,"count":237,"type":"SCALAR"},{"bufferView":154,"componentType":5126,"count":87,"type":"VEC3","max":[0.0371817723,0.030809626,0.024850063],"min":[-0.0212794971,-0.0309843831,-0.005166065]},{"bufferView":154,"componentType":5126,"count":87,"type":"VEC3","byteOffset":12},{"bufferView":154,"componentType":5126,"count":87,"type":"VEC4","byteOffset":24},{"bufferView":67,"componentType":5123,"count":108,"type":"SCALAR"},{"bufferView":93,"componentType":5126,"count":87,"type":"VEC3","max":[0.0371817723,0.030809626,0.024850063],"min":[-0.0212794971,-0.0309843831,-0.005166065]},{"bufferView":93,"componentType":5126,"count":87,"type":"VEC3","byteOffset":12},{"bufferView":93,"componentType":5126,"count":87,"type":"VEC4","byteOffset":24},{"bufferView":68,"componentType":5123,"count":108,"type":"SCALAR"},{"bufferView":155,"componentType":5126,"count":87,"type":"VEC3","max":[0.0371817723,0.030809626,0.024850063],"min":[-0.0212794971,-0.0309843831,-0.005166065]},{"bufferView":155,"componentType":5126,"count":87,"type":"VEC3","byteOffset":12},{"bufferView":155,"componentType":5126,"count":87,"type":"VEC4","byteOffset":24},{"bufferView":69,"componentType":5123,"count":108,"type":"SCALAR"},{"bufferView":156,"componentType":5126,"count":87,"type":"VEC3","max":[0.0371817723,0.030809626,0.024850063],"min":[-0.0212794971,-0.0309843831,-0.005166065]},{"bufferView":156,"componentType":5126,"count":87,"type":"VEC3","byteOffset":12},{"bufferView":156,"componentType":5126,"count":87,"type":"VEC4","byteOffset":24},{"bufferView":70,"componentType":5123,"count":108,"type":"SCALAR"},{"bufferView":157,"componentType":5126,"count":87,"type":"VEC3","max":[0.0371817723,0.030809626,0.024850063],"min":[-0.0212794971,-0.0309843831,-0.005166065]},{"bufferView":157,"componentType":5126,"count":87,"type":"VEC3","byteOffset":12},{"bufferView":157,"componentType":5126,"count":87,"type":"VEC4","byteOffset":24},{"bufferView":71,"componentType":5123,"count":108,"type":"SCALAR"},{"bufferView":158,"componentType":5126,"count":87,"type":"VEC3","max":[0.0371817723,0.030809626,0.024850063],"min":[-0.0212794971,-0.0309843831,-0.005166065]},{"bufferView":158,"componentType":5126,"count":87,"type":"VEC3","byteOffset":12},{"bufferView":158,"componentType":5126,"count":87,"type":"VEC4","byteOffset":24},{"bufferView":72,"componentType":5123,"count":108,"type":"SCALAR"},{"bufferView":159,"componentType":5126,"count":87,"type":"VEC3","max":[0.0371817723,0.030809626,0.024850063],"min":[-0.0212794971,-0.0309843831,-0.005166065]},{"bufferView":159,"componentType":5126,"count":87,"type":"VEC3","byteOffset":12},{"bufferView":159,"componentType":5126,"count":87,"type":"VEC4","byteOffset":24},{"bufferView":73,"componentType":5123,"count":108,"type":"SCALAR"},{"bufferView":160,"componentType":5126,"count":87,"type":"VEC3","max":[0.0371817723,0.030809626,0.024850063],"min":[-0.0212794971,-0.0309843831,-0.005166065]},{"bufferView":160,"componentType":5126,"count":87,"type":"VEC3","byteOffset":12},{"bufferView":160,"componentType":5126,"count":87,"type":"VEC4","byteOffset":24},{"bufferView":74,"componentType":5123,"count":108,"type":"SCALAR"},{"bufferView":161,"componentType":5126,"count":391,"type":"VEC3","max":[0.0436700955,0.0436700955,0.0420000777],"min":[-0.0436700955,-0.0436700955,-0.0100421254]},{"bufferView":161,"componentType":5126,"count":391,"type":"VEC3","byteOffset":12},{"bufferView":161,"componentType":5126,"count":391,"type":"VEC4","byteOffset":24},{"bufferView":75,"componentType":5123,"count":690,"type":"SCALAR"},{"bufferView":162,"componentType":5126,"count":391,"type":"VEC3","max":[0.0436700955,0.0436700955,0.0420000777],"min":[-0.0436700955,-0.0436700955,-0.0100421254]},{"bufferView":162,"componentType":5126,"count":391,"type":"VEC3","byteOffset":12},{"bufferView":162,"componentType":5126,"count":391,"type":"VEC4","byteOffset":24},{"bufferView":76,"componentType":5123,"count":690,"type":"SCALAR"},{"bufferView":163,"componentType":5126,"count":391,"type":"VEC3","max":[0.0436700955,0.0436700955,0.0420000777],"min":[-0.0436700955,-0.0436700955,-0.0100421254]},{"bufferView":163,"componentType":5126,"count":391,"type":"VEC3","byteOffset":12},{"bufferView":163,"componentType":5126,"count":391,"type":"VEC4","byteOffset":24},{"bufferView":77,"componentType":5123,"count":690,"type":"SCALAR"},{"bufferView":164,"componentType":5126,"count":391,"type":"VEC3","max":[0.0436700955,0.0436700955,0.0420000777],"min":[-0.0436700955,-0.0436700955,-0.0100421254]},{"bufferView":164,"componentType":5126,"count":391,"type":"VEC3","byteOffset":12},{"bufferView":164,"componentType":5126,"count":391,"type":"VEC4","byteOffset":24},{"bufferView":78,"componentType":5123,"count":690,"type":"SCALAR"},{"bufferView":165,"componentType":5126,"count":391,"type":"VEC3","max":[0.0436700955,0.0436700955,0.0420000777],"min":[-0.0436700955,-0.0436700955,-0.0100421254]},{"bufferView":165,"componentType":5126,"count":391,"type":"VEC3","byteOffset":12},{"bufferView":165,"componentType":5126,"count":391,"type":"VEC4","byteOffset":24},{"bufferView":79,"componentType":5123,"count":690,"type":"SCALAR"},{"bufferView":166,"componentType":5126,"count":391,"type":"VEC3","max":[0.0436700955,0.0436700955,0.0420000777],"min":[-0.0436700955,-0.0436700955,-0.0100421254]},{"bufferView":166,"componentType":5126,"count":391,"type":"VEC3","byteOffset":12},{"bufferView":166,"componentType":5126,"count":391,"type":"VEC4","byteOffset":24},{"bufferView":80,"componentType":5123,"count":690,"type":"SCALAR"},{"bufferView":167,"componentType":5126,"count":391,"type":"VEC3","max":[0.0436700955,0.0436700955,0.0420000777],"min":[-0.0436700955,-0.0436700955,-0.0100421254]},{"bufferView":167,"componentType":5126,"count":391,"type":"VEC3","byteOffset":12},{"bufferView":167,"componentType":5126,"count":391,"type":"VEC4","byteOffset":24},{"bufferView":81,"componentType":5123,"count":690,"type":"SCALAR"},{"bufferView":168,"componentType":5126,"count":391,"type":"VEC3","max":[0.0436700955,0.0436700955,0.0420000777],"min":[-0.0436700955,-0.0436700955,-0.0100421254]},{"bufferView":168,"componentType":5126,"count":391,"type":"VEC3","byteOffset":12},{"bufferView":168,"componentType":5126,"count":391,"type":"VEC4","byteOffset":24},{"bufferView":82,"componentType":5123,"count":690,"type":"SCALAR"},{"bufferView":169,"componentType":5126,"count":235,"type":"VEC3","max":[0.127000242,0.133096248,0.00317525375],"min":[-0.127000242,-0.133096248,-0.00317525375]},{"bufferView":169,"componentType":5126,"count":235,"type":"VEC3","byteOffset":12},{"bufferView":169,"componentType":5126,"count":235,"type":"VEC4","byteOffset":24},{"bufferView":83,"componentType":5123,"count":630,"type":"SCALAR"},{"bufferView":170,"componentType":5126,"count":235,"type":"VEC3","max":[0.127000242,0.133096248,0.00317525375],"min":[-0.127000242,-0.133096248,-0.00317525375]},{"bufferView":170,"componentType":5126,"count":235,"type":"VEC3","byteOffset":12},{"bufferView":170,"componentType":5126,"count":235,"type":"VEC4","byteOffset":24},{"bufferView":84,"componentType":5123,"count":630,"type":"SCALAR"},{"bufferView":171,"componentType":5126,"count":482,"type":"VEC3","max":[0.07620299,1.54305315,3.0480032],"min":[-2.98023224E-06,-2.98023224E-06,-2.98023224E-06]},{"bufferView":171,"componentType":5126,"count":482,"type":"VEC3","byteOffset":12},{"bufferView":171,"componentType":5126,"count":482,"type":"VEC4","byteOffset":24},{"bufferView":85,"componentType":5123,"count":912,"type":"SCALAR"},{"bufferView":89,"componentType":5126,"count":24,"type":"VEC3","max":[0.5,0.5,0.5],"min":[-0.5,-0.5,-0.5]},{"bufferView":89,"componentType":5126,"count":24,"type":"VEC3","byteOffset":12},{"bufferView":89,"componentType":5126,"count":24,"type":"VEC4","byteOffset":24},{"bufferView":89,"componentType":5126,"count":24,"type":"VEC2","byteOffset":40},{"bufferView":89,"componentType":5126,"count":24,"type":"VEC2","byteOffset":48},{"bufferView":0,"componentType":5123,"count":36,"type":"SCALAR"},{"bufferView":90,"componentType":5126,"count":550,"type":"VEC3","max":[0.5,1,0.5],"min":[-0.5,-1,-0.5]},{"bufferView":90,"componentType":5126,"count":550,"type":"VEC3","byteOffset":12},{"bufferView":90,"componentType":5126,"count":550,"type":"VEC4","byteOffset":24},{"bufferView":90,"componentType":5126,"count":550,"type":"VEC2","byteOffset":40},{"bufferView":90,"componentType":5126,"count":550,"type":"VEC2","byteOffset":48},{"bufferView":1,"componentType":5123,"count":2496,"type":"SCALAR"},{"bufferView":175,"componentType":5126,"count":1033,"type":"VEC3","max":[0.09517116,0.009282225,0.0496584438],"min":[-0.09517116,-0.009282225,-0.0496584438]},{"bufferView":175,"componentType":5126,"count":1033,"type":"VEC3","byteOffset":12},{"bufferView":175,"componentType":5126,"count":1033,"type":"VEC4","byteOffset":24},{"bufferView":175,"componentType":5126,"count":1033,"type":"VEC2","byteOffset":40},{"bufferView":86,"componentType":5123,"count":1506,"type":"SCALAR"},{"bufferView":86,"componentType":5123,"count":1242,"type":"SCALAR","byteOffset":3012},{"bufferView":176,"componentType":5126,"count":840,"type":"VEC3","max":[0.057486292,0.0574019924,0.190503776],"min":[-0.057149332,-0.0574019924,0.101596206]},{"bufferView":176,"componentType":5126,"count":840,"type":"VEC3","byteOffset":12},{"bufferView":176,"componentType":5126,"count":840,"type":"VEC4","byteOffset":24},{"bufferView":176,"componentType":5126,"count":840,"type":"VEC2","byteOffset":40},{"bufferView":87,"componentType":5123,"count":3198,"type":"SCALAR"},{"bufferView":177,"componentType":5126,"count":794,"type":"VEC3","max":[0.100917667,0.1016031,0.1016031],"min":[-0.100917667,-0.1016031,-0.101256035]},{"bufferView":177,"componentType":5126,"count":794,"type":"VEC3","byteOffset":12},{"bufferView":177,"componentType":5126,"count":794,"type":"VEC4","byteOffset":24},{"bufferView":177,"componentType":5126,"count":794,"type":"VEC2","byteOffset":40},{"bufferView":88,"componentType":5123,"count":3786,"type":"SCALAR"}],"cameras":[{"type":"perspective","perspective":{"yfov":1.30899692,"zfar":1000,"znear":0.01}},{"type":"perspective","perspective":{"yfov":2.09439516,"zfar":1000,"znear":0.01}},{"type":"perspective","perspective":{"yfov":2.09439516,"zfar":1000,"znear":0.01}}],"images":[{"name":"Untitled_2_01_Normal.png","uri":"Untitled_2_01_Normal.png","mimeType":"image/png"},{"name":"Untitled_2_01_BaseColor.jpg","uri":"Untitled_2_01_BaseColor.jpg","mimeType":"image/jpeg"},{"name":"Untitled_2_01_Roughness.jpg","uri":"Untitled_2_01_Roughness.jpg","mimeType":"image/jpeg"},{"name":"Untitled_2_02_Normal.png","uri":"Untitled_2_02_Normal.png","mimeType":"image/png"},{"name":"Untitled_2_02_BaseColor.jpg","uri":"Untitled_2_02_BaseColor.jpg","mimeType":"image/jpeg"},{"name":"Untitled_2_02_Roughness.jpg","uri":"Untitled_2_02_Roughness.jpg","mimeType":"image/jpeg"}],"materials":[{"name":"Material #38","pbrMetallicRoughness":{"metallicFactor":0}},{"name":"Material #25","pbrMetallicRoughness":{"metallicFactor":0},"alphaMode":"BLEND","doubleSided":true},{"name":"Material #27","pbrMetallicRoughness":{"metallicFactor":0}},{"name":"Material #28","pbrMetallicRoughness":{"metallicFactor":0}},{"name":"Material #31","pbrMetallicRoughness":{"metallicFactor":0}},{"name":"Material #26","pbrMetallicRoughness":{"metallicFactor":0}},{"name":"Material #32","pbrMetallicRoughness":{"metallicFactor":0}},{"name":"Material #33","pbrMetallicRoughness":{"metallicFactor":0}},{"name":"Material #36","pbrMetallicRoughness":{"metallicFactor":0}},{"name":"Material #37","pbrMetallicRoughness":{"metallicFactor":0}},{"name":"blue","pbrMetallicRoughness":{"baseColorFactor":[0,0,1,1],"metallicFactor":0,"roughnessFactor":0.5}},{"name":"white","pbrMetallicRoughness":{"baseColorFactor":[0.6070304,0.6070304,0.6070304,1],"metallicFactor":0.257,"roughnessFactor":0.211000025},"emissiveFactor":[1,1,1]},{"name":"red","pbrMetallicRoughness":{"baseColorFactor":[0.5457247,0.0116122393,0.005605389,1],"metallicFactor":0.074,"roughnessFactor":0.318000019},"extensions":{"KHR_materials_clearcoat":{"clearcoatFactor":0.019}}},{"name":"black","pbrMetallicRoughness":{"baseColorFactor":[0,0,0,1],"metallicFactor":0,"roughnessFactor":0.5}},{"name":"blue","pbrMetallicRoughness":{"baseColorFactor":[0.07818741,0.4341537,0.8549928,1],"metallicFactor":0,"roughnessFactor":0.5}},{"name":"orange","pbrMetallicRoughness":{"baseColorFactor":[1,0.04946319,0,1],"metallicFactor":0,"roughnessFactor":0.536}},{"name":"pool_1_mat_1","pbrMetallicRoughness":{"metallicFactor":0,"baseColorTexture":{"index":1},"metallicRoughnessTexture":{"index":2}},"normalTexture":{"index":0},"occlusionTexture":{"index":2,"strength":0.172238529},"doubleSided":true},{"name":"pool_1_mat_2","pbrMetallicRoughness":{"metallicFactor":0,"baseColorTexture":{"index":4},"metallicRoughnessTexture":{"index":5}},"normalTexture":{"index":3},"occlusionTexture":{"index":5}},{"name":"buoy_black","pbrMetallicRoughness":{"baseColorFactor":[0.016807368,0.0129830251,0.0998987257,1],"metallicFactor":0,"roughnessFactor":0.5}},{"name":"buoy_red","pbrMetallicRoughness":{"baseColorFactor":[1,0,0,1],"metallicFactor":0.008,"roughnessFactor":0.08399999}}],"meshes":[{"name":"default","primitives":[{"attributes":{"POSITION":0,"NORMAL":1,"TANGENT":2},"indices":3,"material":0}]},{"name":"Boss-Extrude1","primitives":[{"attributes":{"POSITION":4,"NORMAL":5,"TANGENT":6,"TEXCOORD_0":7},"indices":8,"material":1}]},{"name":"Boss-Extrude1","primitives":[{"attributes":{"POSITION":9,"NORMAL":10,"TANGENT":11},"indices":12,"material":2}]},{"name":"Boss-Extrude1","primitives":[{"attributes":{"POSITION":13,"NORMAL":14,"TANGENT":15},"indices":16,"material":2}]},{"name":"Boss-Extrude1","primitives":[{"attributes":{"POSITION":17,"NORMAL":18,"TANGENT":19},"indices":20,"material":2}]},{"name":"Boss-Extrude1","primitives":[{"attributes":{"POSITION":21,"NORMAL":22,"TANGENT":23},"indices":24,"material":2}]},{"name":"Boss-Extrude2","primitives":[{"attributes":{"POSITION":25,"NORMAL":26,"TANGENT":27},"indices":28,"material":3}]},{"name":"Boss-Extrude2","primitives":[{"attributes":{"POSITION":29,"NORMAL":30,"TANGENT":31},"indices":32,"material":3}]},{"name":"Cut-Extrude1","primitives":[{"attributes":{"POSITION":33,"NORMAL":34,"TANGENT":35},"indices":36,"material":3}]},{"name":"Cut-Extrude1","primitives":[{"attributes":{"POSITION":37,"NORMAL":38,"TANGENT":39},"indices":40,"material":4}]},{"name":"Cut-Extrude1","primitives":[{"attributes":{"POSITION":41,"NORMAL":42,"TANGENT":43},"indices":44,"material":3}]},{"name":"Cut-Extrude1","primitives":[{"attributes":{"POSITION":45,"NORMAL":46,"TANGENT":47},"indices":48,"material":3}]},{"name":"Cut-Extrude1","primitives":[{"attributes":{"POSITION":49,"NORMAL":50,"TANGENT":51},"indices":52,"material":3}]},{"name":"Cut-Extrude1","primitives":[{"attributes":{"POSITION":53,"NORMAL":54,"TANGENT":55},"indices":56,"material":4}]},{"name":"Cut-Extrude1","primitives":[{"attributes":{"POSITION":57,"NORMAL":58,"TANGENT":59},"indices":60,"material":4}]},{"name":"Cut-Extrude1","primitives":[{"attributes":{"POSITION":61,"NORMAL":62,"TANGENT":63},"indices":64,"material":4}]},{"name":"Cut-Extrude2","primitives":[{"attributes":{"POSITION":65,"NORMAL":66,"TANGENT":67},"indices":68,"material":5}]},{"name":"Cut-Extrude2","primitives":[{"attributes":{"POSITION":69,"NORMAL":70,"TANGENT":71},"indices":72,"material":5}]},{"name":"Fillet1","primitives":[{"attributes":{"POSITION":73,"NORMAL":74,"TANGENT":75,"TEXCOORD_0":76},"indices":77,"material":3}]},{"name":"Fillet1","primitives":[{"attributes":{"POSITION":78,"NORMAL":79,"TANGENT":80},"indices":81,"material":6}]},{"name":"Fillet1","primitives":[{"attributes":{"POSITION":82,"NORMAL":83,"TANGENT":84},"indices":85,"material":7}]},{"name":"Fillet1","primitives":[{"attributes":{"POSITION":86,"NORMAL":87,"TANGENT":88},"indices":89,"material":7}]},{"name":"Fillet1","primitives":[{"attributes":{"POSITION":90,"NORMAL":91,"TANGENT":92},"indices":93,"material":6}]},{"name":"Fillet1","primitives":[{"attributes":{"POSITION":94,"NORMAL":95,"TANGENT":96},"indices":97,"material":6}]},{"name":"Fillet1","primitives":[{"attributes":{"POSITION":98,"NORMAL":99,"TANGENT":100},"indices":101,"material":6}]},{"name":"Fillet1","primitives":[{"attributes":{"POSITION":102,"NORMAL":103,"TANGENT":104},"indices":105,"material":6}]},{"name":"Fillet1","primitives":[{"attributes":{"POSITION":106,"NORMAL":107,"TANGENT":108},"indices":109,"material":6}]},{"name":"Fillet1","primitives":[{"attributes":{"POSITION":110,"NORMAL":111,"TANGENT":112},"indices":113,"material":6}]},{"name":"Fillet1","primitives":[{"attributes":{"POSITION":114,"NORMAL":115,"TANGENT":116},"indices":117,"material":6}]},{"name":"Fillet1","primitives":[{"attributes":{"POSITION":118,"NORMAL":119,"TANGENT":120},"indices":121,"material":6}]},{"name":"Fillet1","primitives":[{"attributes":{"POSITION":122,"NORMAL":123,"TANGENT":124},"indices":125,"material":6}]},{"name":"Fillet1","primitives":[{"attributes":{"POSITION":126,"NORMAL":127,"TANGENT":128},"indices":129,"material":6}]},{"name":"Fillet1","primitives":[{"attributes":{"POSITION":130,"NORMAL":131,"TANGENT":132},"indices":133,"material":6}]},{"name":"Fillet1","primitives":[{"attributes":{"POSITION":134,"NORMAL":135,"TANGENT":136},"indices":137,"material":6}]},{"name":"Fillet1","primitives":[{"attributes":{"POSITION":138,"NORMAL":139,"TANGENT":140},"indices":141,"material":7}]},{"name":"Fillet1","primitives":[{"attributes":{"POSITION":142,"NORMAL":143,"TANGENT":144},"indices":145,"material":7}]},{"name":"Fillet1","primitives":[{"attributes":{"POSITION":146,"NORMAL":147,"TANGENT":148},"indices":149,"material":6}]},{"name":"Fillet1","primitives":[{"attributes":{"POSITION":150,"NORMAL":151,"TANGENT":152},"indices":153,"material":6}]},{"name":"Fillet1","primitives":[{"attributes":{"POSITION":154,"NORMAL":155,"TANGENT":156},"indices":157,"material":6}]},{"name":"Fillet1","primitives":[{"attributes":{"POSITION":158,"NORMAL":159,"TANGENT":160},"indices":161,"material":6}]},{"name":"Fillet1","primitives":[{"attributes":{"POSITION":162,"NORMAL":163,"TANGENT":164,"TEXCOORD_0":165},"indices":166,"material":3}]},{"name":"Fillet2","primitives":[{"attributes":{"POSITION":167,"NORMAL":168,"TANGENT":169},"indices":170,"material":6}]},{"name":"Fillet2","primitives":[{"attributes":{"POSITION":171,"NORMAL":172,"TANGENT":173},"indices":174,"material":6}]},{"name":"Fillet3","primitives":[{"attributes":{"POSITION":175,"NORMAL":176,"TANGENT":177},"indices":178,"material":6}]},{"name":"Frame Mount Holes","primitives":[{"attributes":{"POSITION":179,"NORMAL":180,"TANGENT":181},"indices":182,"material":4}]},{"name":"Frame Mount Holes","primitives":[{"attributes":{"POSITION":183,"NORMAL":184,"TANGENT":185},"indices":186,"material":4}]},{"name":"Frame Mount Holes","primitives":[{"attributes":{"POSITION":187,"NORMAL":188,"TANGENT":189},"indices":190,"material":4}]},{"name":"Frame Mount Holes","primitives":[{"attributes":{"POSITION":191,"NORMAL":192,"TANGENT":193},"indices":194,"material":4}]},{"name":"Hole1","primitives":[{"attributes":{"POSITION":195,"NORMAL":196,"TANGENT":197},"indices":198,"material":8}]},{"name":"PUBLICT100-P-NOSE-CONE-R1-1-solid1","primitives":[{"attributes":{"POSITION":199,"NORMAL":200,"TANGENT":201},"indices":202,"material":9}]},{"name":"PUBLICT100-P-NOSE-CONE-R1-1-solid1","primitives":[{"attributes":{"POSITION":203,"NORMAL":204,"TANGENT":205},"indices":206,"material":9}]},{"name":"PUBLICT100-P-NOSE-CONE-R1-1-solid1","primitives":[{"attributes":{"POSITION":207,"NORMAL":208,"TANGENT":209},"indices":210,"material":9}]},{"name":"PUBLICT100-P-NOSE-CONE-R1-1-solid1","primitives":[{"attributes":{"POSITION":211,"NORMAL":212,"TANGENT":213},"indices":214,"material":9}]},{"name":"PUBLICT100-P-NOSE-CONE-R1-1-solid1","primitives":[{"attributes":{"POSITION":215,"NORMAL":216,"TANGENT":217},"indices":218,"material":9}]},{"name":"PUBLICT100-P-NOSE-CONE-R1-1-solid1","primitives":[{"attributes":{"POSITION":219,"NORMAL":220,"TANGENT":221},"indices":222,"material":9}]},{"name":"PUBLICT100-P-NOSE-CONE-R1-1-solid1","primitives":[{"attributes":{"POSITION":223,"NORMAL":224,"TANGENT":225},"indices":226,"material":9}]},{"name":"PUBLICT100-P-NOSE-CONE-R1-1-solid1","primitives":[{"attributes":{"POSITION":227,"NORMAL":228,"TANGENT":229},"indices":230,"material":9}]},{"name":"PUBLICT100-P-NOZZLE-R1-1-solid1","primitives":[{"attributes":{"POSITION":231,"NORMAL":232,"TANGENT":233},"indices":234,"material":9}]},{"name":"PUBLICT100-P-NOZZLE-R1-1-solid1","primitives":[{"attributes":{"POSITION":235,"NORMAL":236,"TANGENT":237},"indices":238,"material":9}]},{"name":"PUBLICT100-P-NOZZLE-R1-1-solid1","primitives":[{"attributes":{"POSITION":239,"NORMAL":240,"TANGENT":241},"indices":242,"material":9}]},{"name":"PUBLICT100-P-NOZZLE-R1-1-solid1","primitives":[{"attributes":{"POSITION":243,"NORMAL":244,"TANGENT":245},"indices":246,"material":9}]},{"name":"PUBLICT100-P-NOZZLE-R1-1-solid1","primitives":[{"attributes":{"POSITION":247,"NORMAL":248,"TANGENT":249},"indices":250,"material":9}]},{"name":"PUBLICT100-P-NOZZLE-R1-1-solid1","primitives":[{"attributes":{"POSITION":251,"NORMAL":252,"TANGENT":253},"indices":254,"material":9}]},{"name":"PUBLICT100-P-NOZZLE-R1-1-solid1","primitives":[{"attributes":{"POSITION":255,"NORMAL":256,"TANGENT":257},"indices":258,"material":9}]},{"name":"PUBLICT100-P-NOZZLE-R1-1-solid1","primitives":[{"attributes":{"POSITION":259,"NORMAL":260,"TANGENT":261},"indices":262,"material":9}]},{"name":"PUBLICT200-P-PROPELLER-CW-XJ3-3-solid1","primitives":[{"attributes":{"POSITION":263,"NORMAL":264,"TANGENT":265},"indices":266,"material":0}]},{"name":"PUBLICT200-P-PROPELLER-CW-XJ3-3-solid1","primitives":[{"attributes":{"POSITION":267,"NORMAL":268,"TANGENT":269},"indices":270,"material":0}]},{"name":"PUBLICT200-P-PROPELLER-CW-XJ3-3-solid1","primitives":[{"attributes":{"POSITION":271,"NORMAL":272,"TANGENT":273},"indices":274,"material":0}]},{"name":"PUBLICT200-P-PROPELLER-CW-XJ3-3-solid1","primitives":[{"attributes":{"POSITION":275,"NORMAL":276,"TANGENT":277},"indices":278,"material":0}]},{"name":"PUBLICT200-P-PROPELLER-CW-XJ3-3-solid1","primitives":[{"attributes":{"POSITION":279,"NORMAL":280,"TANGENT":281},"indices":282,"material":0}]},{"name":"PUBLICT200-P-PROPELLER-CW-XJ3-3-solid1","primitives":[{"attributes":{"POSITION":283,"NORMAL":284,"TANGENT":285},"indices":286,"material":0}]},{"name":"PUBLICT200-P-PROPELLER-CW-XJ3-3-solid1","primitives":[{"attributes":{"POSITION":287,"NORMAL":288,"TANGENT":289},"indices":290,"material":0}]},{"name":"PUBLICT200-P-PROPELLER-CW-XJ3-3-solid1","primitives":[{"attributes":{"POSITION":291,"NORMAL":292,"TANGENT":293},"indices":294,"material":0}]},{"name":"PUBLICT200-P-STATOR-BASE-R1-1-solid1","primitives":[{"attributes":{"POSITION":295,"NORMAL":296,"TANGENT":297},"indices":298,"material":9}]},{"name":"PUBLICT200-P-STATOR-BASE-R1-1-solid1","primitives":[{"attributes":{"POSITION":299,"NORMAL":300,"TANGENT":301},"indices":302,"material":9}]},{"name":"PUBLICT200-P-STATOR-BASE-R1-1-solid1","primitives":[{"attributes":{"POSITION":303,"NORMAL":304,"TANGENT":305},"indices":306,"material":9}]},{"name":"PUBLICT200-P-STATOR-BASE-R1-1-solid1","primitives":[{"attributes":{"POSITION":307,"NORMAL":308,"TANGENT":309},"indices":310,"material":9}]},{"name":"PUBLICT200-P-STATOR-BASE-R1-1-solid1","primitives":[{"attributes":{"POSITION":311,"NORMAL":312,"TANGENT":313},"indices":314,"material":9}]},{"name":"PUBLICT200-P-STATOR-BASE-R1-1-solid1","primitives":[{"attributes":{"POSITION":315,"NORMAL":316,"TANGENT":317},"indices":318,"material":9}]},{"name":"PUBLICT200-P-STATOR-BASE-R1-1-solid1","primitives":[{"attributes":{"POSITION":319,"NORMAL":320,"TANGENT":321},"indices":322,"material":9}]},{"name":"PUBLICT200-P-STATOR-BASE-R1-1-solid1","primitives":[{"attributes":{"POSITION":323,"NORMAL":324,"TANGENT":325},"indices":326,"material":9}]},{"name":"Vertical Holes Bottom","primitives":[{"attributes":{"POSITION":327,"NORMAL":328,"TANGENT":329},"indices":330,"material":4}]},{"name":"Vertical Holes Bottom","primitives":[{"attributes":{"POSITION":331,"NORMAL":332,"TANGENT":333},"indices":334,"material":4}]},{"name":"default","primitives":[{"attributes":{"POSITION":335,"NORMAL":336,"TANGENT":337},"indices":338,"material":11}]},{"name":"Cube","primitives":[{"attributes":{"POSITION":339,"NORMAL":340,"TANGENT":341,"TEXCOORD_0":342,"TEXCOORD_1":343},"indices":344,"material":12}]},{"name":"Capsule","primitives":[{"attributes":{"POSITION":345,"NORMAL":346,"TANGENT":347,"TEXCOORD_0":348,"TEXCOORD_1":349},"indices":350,"material":15}]},{"name":"02","primitives":[{"attributes":{"POSITION":351,"NORMAL":352,"TANGENT":353,"TEXCOORD_0":354},"indices":355,"material":16},{"attributes":{"POSITION":351,"NORMAL":352,"TANGENT":353,"TEXCOORD_0":354},"indices":356,"material":17}]},{"name":"Body1","primitives":[{"attributes":{"POSITION":357,"NORMAL":358,"TANGENT":359,"TEXCOORD_0":360},"indices":361,"material":18}]},{"name":"Body2","primitives":[{"attributes":{"POSITION":362,"NORMAL":363,"TANGENT":364,"TEXCOORD_0":365},"indices":366,"material":19}]},{"name":"default","primitives":[{"attributes":{"POSITION":0,"NORMAL":1,"TANGENT":2},"indices":3,"material":10}]},{"name":"Cube","primitives":[{"attributes":{"POSITION":339,"NORMAL":340,"TANGENT":341,"TEXCOORD_0":342,"TEXCOORD_1":343},"indices":344,"material":13}]},{"name":"Cube","primitives":[{"attributes":{"POSITION":339,"NORMAL":340,"TANGENT":341,"TEXCOORD_0":342,"TEXCOORD_1":343},"indices":344,"material":14}]}],"scene":0,"scenes":[{"name":"RectPoolScene","nodes":[0,1,2,3,4,110,138]}],"textures":[{"source":0},{"source":1},{"source":2},{"source":3},{"source":4},{"source":5}],"extensions":{"KHR_lights_punctual":{"lights":[{"type":"directional","name":"Sun","intensity":30000}]}}}